<?xml version="1.0" encoding="utf-8"?>
<!-- Generator: Adobe Illustrator 22.0.0, SVG Export Plug-In . SVG Version: 6.00 Build 0)  -->
<svg version="1.1" id="Layer_1" xmlns="http://www.w3.org/2000/svg" xmlns:xlink="http://www.w3.org/1999/xlink" x="0px" y="0px"
	 width="46.378px" height="46.172px" viewBox="0 0 46.378 46.172" style="enable-background:new 0 0 46.378 46.172;"
	 xml:space="preserve">
<style type="text/css">
	.st0{fill:#FFFFFF;stroke:#FFD800;stroke-width:3;stroke-miterlimit:10;}
	.st1{fill:#FFFFFF;}
	.st2{fill:#FFD800;}
	.st3{fill:#999999;}
	.st4{fill:none;}
	.st5{fill:none;stroke:#FFD800;stroke-width:2;stroke-miterlimit:10;}
	.st6{fill:none;stroke:#000000;stroke-width:2;stroke-miterlimit:10;}
	.st7{fill:none;stroke:#808080;stroke-miterlimit:10;}
	.st8{fill:none;stroke:#FFD800;stroke-width:3;stroke-miterlimit:10;}
	.st9{opacity:0.43;}
	.st10{opacity:0.5;}
</style>
<g>
	<path class="st2" d="M21.343,3.398c0.996,0,1.992,0,2.988,0c0.195,0.049,0.387,0.126,0.585,0.145
		c8.059,0.739,15.006,6.486,17.172,14.3c0.426,1.535,0.591,3.143,0.877,4.717c0,0.352,0,0.703,0,1.055
		c-0.05,0.255-0.117,0.508-0.147,0.766c-0.976,8.265-5.237,14.088-12.975,17.223c-1.513,0.613-3.201,0.793-4.808,1.172
		c-0.996,0-1.992,0-2.988,0c-0.658-0.11-1.319-0.2-1.972-0.334c-7.648-1.569-13.008-5.877-15.708-13.274
		c-0.483-1.322-0.644-2.761-0.953-4.146c0-1.055,0-2.109,0-3.164c0.111-0.624,0.206-1.252,0.337-1.872
		C5.384,12.236,9.789,6.864,17.355,4.274C18.635,3.837,20.011,3.683,21.343,3.398z M6.533,23.348
		c-0.078,8.718,7.582,16.13,16.74,16.295c8.831,0.16,16.397-7.479,16.467-16.452C39.812,13.954,32.224,6.601,23,6.527
		C14.059,6.456,6.616,14.05,6.533,23.348z"/>
	<path class="st2" d="M26.655,18.598c-0.661,2.301-1.263,4.396-1.864,6.491c-0.652,2.272-1.323,4.539-1.93,6.822
		c-0.095,0.359,0.104,0.796,0.168,1.197c0.373-0.155,0.831-0.222,1.101-0.483c0.499-0.483,0.865-1.102,1.338-1.616
		c0.154-0.167,0.467-0.187,0.762-0.16c-0.842,1.64-1.775,3.163-3.381,3.999c-0.787,0.41-1.778,0.675-2.652,0.619
		c-1.541-0.099-2.336-1.353-1.927-2.907c0.705-2.68,1.516-5.332,2.275-7.998c0.232-0.814,0.47-1.627,0.651-2.453
		c0.268-1.224-0.079-1.645-1.355-1.738c-0.11-0.008-0.219-0.022-0.542-0.056c0.29-0.287,0.446-0.584,0.648-0.619
		C22.124,19.315,24.311,18.975,26.655,18.598z"/>
	<path class="st2" d="M25.587,15.77c-1.452,0.011-2.56-1.072-2.573-2.518c-0.013-1.43,1.095-2.593,2.501-2.622
		c1.424-0.03,2.627,1.152,2.64,2.593C28.167,14.625,27.025,15.758,25.587,15.77z"/>
</g>
</svg>
