<?xml version="1.0" encoding="utf-8"?>
<!-- Generator: Adobe Illustrator 22.0.0, SVG Export Plug-In . SVG Version: 6.00 Build 0)  -->
<svg version="1.1" id="Layer_1" xmlns="http://www.w3.org/2000/svg" xmlns:xlink="http://www.w3.org/1999/xlink" x="0px" y="0px"
	 width="46.378px" height="46.172px" viewBox="0 0 46.378 46.172" style="enable-background:new 0 0 46.378 46.172;"
	 xml:space="preserve">
<style type="text/css">
	.st0{fill:#FFFFFF;stroke:#FFD800;stroke-width:3;stroke-miterlimit:10;}
	.st1{fill:#FFFFFF;}
	.st2{fill:#FFD800;}
	.st3{fill:#999999;}
	.st4{fill:none;}
	.st5{fill:none;stroke:#FFD800;stroke-width:2;stroke-miterlimit:10;}
	.st6{fill:none;stroke:#000000;stroke-width:2;stroke-miterlimit:10;}
	.st7{fill:none;stroke:#808080;stroke-miterlimit:10;}
	.st8{fill:none;stroke:#FFD800;stroke-width:3;stroke-miterlimit:10;}
	.st9{opacity:0.43;}
	.st10{opacity:0.5;}
</style>
<g>
	<g>
		<path class="st2" d="M23.252,1.919c11.715,0.022,21.125,9.487,21.104,21.229c-0.021,11.715-9.488,21.126-21.229,21.105
			C11.412,44.231,2.001,34.764,2.022,23.023C2.044,11.308,11.511,1.898,23.252,1.919z M41.02,22.699
			c-0.376-9.965-8.529-17.784-18.189-17.445c-9.956,0.35-17.787,8.488-17.475,18.16c0.323,9.992,8.562,17.894,18.25,17.503
			C33.58,40.514,41.384,32.35,41.02,22.699z"/>
		<path class="st2" d="M25.307,25.259c0,2.05,0.015,4.034-0.005,6.017c-0.013,1.311-0.645,2.149-1.691,2.334
			c-1.429,0.253-2.506-0.688-2.531-2.28c-0.031-1.988-0.007-3.977-0.007-6.126c-1.232,0-2.383,0-3.534,0
			c-0.715,0-1.43,0.002-2.145,0c-1.822-0.006-2.746-0.707-2.761-2.091c-0.015-1.398,0.915-2.138,2.707-2.144
			c1.505-0.005,3.011,0.002,4.516-0.003c0.366-0.001,0.732-0.031,1.216-0.052c0-2.05-0.015-4.034,0.005-6.018
			c0.013-1.311,0.642-2.145,1.691-2.334c1.425-0.257,2.506,0.687,2.531,2.279c0.031,1.988,0.007,3.978,0.007,6.128
			c2.058,0,4.037-0.012,6.016,0.004c1.333,0.011,2.169,0.604,2.383,1.636c0.293,1.417-0.647,2.549-2.215,2.586
			c-1.655,0.038-3.312,0.007-4.967,0.013C26.157,25.208,25.791,25.237,25.307,25.259z"/>
	</g>
</g>
</svg>
