<?xml version="1.0" encoding="utf-8"?>
<!-- Generator: Adobe Illustrator 22.0.0, SVG Export Plug-In . SVG Version: 6.00 Build 0)  -->
<svg version="1.1" id="Layer_1" xmlns="http://www.w3.org/2000/svg" xmlns:xlink="http://www.w3.org/1999/xlink" x="0px" y="0px"
	 width="45.251px" height="45.251px" viewBox="0 0 45.251 45.251" style="enable-background:new 0 0 45.251 45.251;"
	 xml:space="preserve">
<style type="text/css">
	.st0{fill:#FFFFFF;stroke:#FFD800;stroke-width:3;stroke-miterlimit:10;}
	.st1{fill:#FFFFFF;}
	.st2{fill:#FFD800;}
	.st3{fill:#999999;}
	.st4{fill:none;}
	.st5{fill:none;stroke:#FFD800;stroke-width:2;stroke-miterlimit:10;}
	.st6{fill:none;stroke:#000000;stroke-width:2;stroke-miterlimit:10;}
	.st7{fill:none;stroke:#808080;stroke-miterlimit:10;}
	.st8{fill:none;stroke:#FFD800;stroke-width:3;stroke-miterlimit:10;}
	.st9{opacity:0.43;}
	.st10{opacity:0.5;}
</style>
<circle class="st1" cx="22.625" cy="22.625" r="21.424"/>
<g>
	<path d="M16.726,21.748c-4.812-3.397-4.123-8.817-1.63-11.475c2.918-3.11,7.792-3.215,10.789-0.223
		c2.554,2.549,3.651,7.966-1.343,11.665c1.013,0.577,2.029,1.157,3.103,1.768c-0.451,0.573-0.808,1.028-1.204,1.53
		c-3.685-2.464-7.487-2.739-11.236-0.229c-2.655,1.778-3.959,4.391-4.059,7.723c1.591,0,3.099,0,4.606,0
		c1.616,0,3.233,0.041,4.846-0.018c0.722-0.026,1.166,0.147,1.428,0.853c0.131,0.354,0.446,0.64,0.742,1.043
		c-0.292,0.029-0.529,0.073-0.766,0.073c-3.495,0.004-6.99,0.007-10.485,0.001c-1.658-0.003-2.38-0.723-2.292-2.362
		c0.243-4.553,2.493-7.803,6.504-9.883C16.046,22.052,16.375,21.912,16.726,21.748z M26.09,15.287c0-3.01-2.435-5.465-5.458-5.501
		c-3.024-0.036-5.562,2.488-5.551,5.521c0.011,3.015,2.465,5.477,5.47,5.489C23.619,20.807,26.09,18.35,26.09,15.287z"/>
	<path d="M28.7,30.042c0-1.09-0.01-2.043,0.003-2.996c0.014-1.061,0.545-1.698,1.384-1.691c0.831,0.007,1.339,0.641,1.352,1.715
		c0.011,0.951,0.002,1.903,0.002,3.009c1.025,0,1.969-0.009,2.912,0.002c1.103,0.013,1.682,0.491,1.68,1.365
		c-0.002,0.865-0.595,1.351-1.694,1.368c-0.857,0.014-1.714,0.008-2.571,0.016c-0.06,0.001-0.119,0.048-0.294,0.125
		c0,0.895,0.009,1.841-0.002,2.787c-0.012,1-0.528,1.626-1.325,1.637c-0.79,0.011-1.337-0.608-1.389-1.602
		c-0.026-0.494-0.014-0.989-0.017-1.484c-0.002-0.456,0-0.912,0-1.55c-1.071,0-2.046,0.017-3.02-0.005
		c-1.104-0.025-1.671-0.522-1.647-1.395c0.023-0.844,0.567-1.285,1.634-1.298C26.657,30.033,27.608,30.042,28.7,30.042z"/>
</g>
</svg>
