<?xml version="1.0" encoding="utf-8"?>
<!-- Generator: Adobe Illustrator 22.0.0, SVG Export Plug-In . SVG Version: 6.00 Build 0)  -->
<svg version="1.1" id="Layer_1" xmlns="http://www.w3.org/2000/svg" xmlns:xlink="http://www.w3.org/1999/xlink" x="0px" y="0px"
	 width="46.378px" height="46.172px" viewBox="0 0 46.378 46.172" style="enable-background:new 0 0 46.378 46.172;"
	 xml:space="preserve">
<style type="text/css">
	.st0{fill:#FFFFFF;stroke:#FFD800;stroke-width:3;stroke-miterlimit:10;}
	.st1{fill:#FFFFFF;}
	.st2{fill:#FFD800;}
	.st3{fill:#999999;}
	.st4{fill:none;}
	.st5{fill:none;stroke:#FFD800;stroke-width:2;stroke-miterlimit:10;}
	.st6{fill:none;stroke:#000000;stroke-width:2;stroke-miterlimit:10;}
	.st7{fill:none;stroke:#808080;stroke-miterlimit:10;}
	.st8{fill:none;stroke:#FFD800;stroke-width:3;stroke-miterlimit:10;}
	.st9{opacity:0.43;}
	.st10{opacity:0.5;}
</style>
<path class="st2" d="M39.555,34.716c-0.065-0.209-0.156-0.404-0.287-0.565c-2.47-3.006-3.576-6.415-3.588-10.303
	c-0.005-1.868-0.196-3.752-0.513-5.589c-0.439-2.548-1.385-4.936-3.012-6.781c-1.624-1.843-3.933-3.128-7.032-3.47
	c-0.009-0.004-0.035-0.021-0.065-0.049c-0.047-0.044-0.1-0.111-0.137-0.174c-0.019-0.032-0.033-0.063-0.043-0.088
	c-0.01-0.025-0.013-0.044-0.013-0.047c-0.025-0.27-0.032-0.545-0.032-0.826c0-0.29,0.007-0.586,0.007-0.885
	c0-0.128-0.001-0.256-0.005-0.385c-0.014-0.465-0.17-0.886-0.433-1.2c-0.132-0.157-0.291-0.286-0.472-0.377
	c-0.181-0.091-0.384-0.141-0.597-0.141c-0.049,0-0.098,0.003-0.147,0.008c-0.224,0.024-0.432,0.075-0.62,0.158
	c-0.282,0.123-0.52,0.322-0.677,0.585c-0.158,0.263-0.234,0.582-0.235,0.941c-0.001,0.413-0.009,0.83-0.009,1.25
	c0,0.26,0.003,0.52,0.013,0.782l0-0.001c0.001,0.026,0.001,0.051,0.001,0.073c0,0.094-0.009,0.165-0.022,0.213
	c-0.01,0.036-0.021,0.058-0.033,0.075c-0.018,0.025-0.04,0.046-0.098,0.072c-0.057,0.026-0.15,0.051-0.28,0.066
	c-2.241,0.273-4.129,1.029-5.651,2.25c-1.522,1.221-2.672,2.902-3.46,5.002c-1.082,2.885-1.316,5.889-1.325,8.892
	c-0.012,3.64-1.094,6.862-3.389,9.682c-0.161,0.198-0.324,0.4-0.454,0.628c-0.129,0.226-0.224,0.486-0.224,0.776
	c0,0.228,0.059,0.468,0.184,0.71c0.105,0.207,0.237,0.375,0.389,0.504c0.228,0.195,0.493,0.297,0.755,0.348
	c0.263,0.051,0.528,0.056,0.785,0.056c0.019,0,0.038,0,0.056,0c0.586-0.002,1.173-0.002,1.76-0.002c0.75,0,1.5,0.001,2.251,0.001
	c1.005,0,2.01-0.001,3.016-0.008l0.02,0c0.104,0,0.188,0.006,0.252,0.018c0.048,0.009,0.084,0.021,0.113,0.035
	c0.043,0.022,0.074,0.046,0.114,0.099c0.039,0.052,0.081,0.136,0.122,0.263c0.527,1.646,1.363,2.911,2.497,3.758
	c1.133,0.848,2.552,1.267,4.206,1.266c0.013,0,0.026,0,0.039,0c1.646-0.006,3.064-0.431,4.195-1.276
	c1.131-0.844,1.963-2.098,2.473-3.718c0.034-0.109,0.069-0.192,0.103-0.25c0.053-0.088,0.091-0.121,0.147-0.149
	c0.056-0.027,0.149-0.048,0.299-0.048c0.013,0,0.027,0,0.041,0c0.515,0.011,1.03,0.014,1.543,0.014c0.708,0,1.415-0.006,2.12-0.007
	l0-0.283l0,0.283l0.036,0c0.706,0,1.419,0.021,2.136,0.021c0.564,0,1.131-0.013,1.698-0.06c0.147-0.012,0.293-0.05,0.437-0.103
	c0.216-0.081,0.427-0.199,0.611-0.342c0.183-0.145,0.341-0.312,0.435-0.52c0.075-0.168,0.1-0.35,0.1-0.537
	C39.655,35.147,39.619,34.925,39.555,34.716z M26.598,36.904c-0.217,0.668-0.577,1.17-1.066,1.526
	c-0.571,0.415-1.335,0.638-2.286,0.638c-0.956,0-1.718-0.221-2.288-0.635c-0.488-0.356-0.846-0.858-1.065-1.53
	c0.259,0,0.511,0,0.762,0C22.63,36.904,24.604,36.904,26.598,36.904z M34.938,33.63c-7.835,0-15.555,0-23.338,0
	c0.425-0.911,0.855-1.785,1.218-2.696c0.806-2.023,1.11-4.127,1.222-6.278c0.119-2.295,0.243-4.61,0.733-6.81
	c0.256-1.15,0.628-2.141,1.107-2.98c0.719-1.258,1.674-2.177,2.86-2.79c1.187-0.612,2.611-0.917,4.264-0.918
	c0.486,0,0.992,0.026,1.516,0.079c1.05,0.106,1.982,0.333,2.801,0.68c1.229,0.522,2.206,1.309,2.962,2.382
	c0.755,1.073,1.287,2.438,1.595,4.108c0.355,1.926,0.537,3.909,0.568,5.871c0.05,3.255,0.794,6.3,2.383,9.141
	C34.866,33.482,34.9,33.55,34.938,33.63z"/>
</svg>
