<?xml version="1.0" encoding="utf-8"?>
<!-- Generator: Adobe Illustrator 22.0.0, SVG Export Plug-In . SVG Version: 6.00 Build 0)  -->
<svg version="1.1" id="Layer_1" xmlns="http://www.w3.org/2000/svg" xmlns:xlink="http://www.w3.org/1999/xlink" x="0px" y="0px"
	 width="46.378px" height="46.172px" viewBox="0 0 46.378 46.172" style="enable-background:new 0 0 46.378 46.172;"
	 xml:space="preserve">
<style type="text/css">
	.st0{fill:#FFFFFF;stroke:#FFD800;stroke-width:3;stroke-miterlimit:10;}
	.st1{fill:#FFFFFF;}
	.st2{fill:#FFD800;}
	.st3{fill:#999999;}
	.st4{fill:none;}
	.st5{fill:none;stroke:#FFD800;stroke-width:2;stroke-miterlimit:10;}
	.st6{fill:none;stroke:#000000;stroke-width:2;stroke-miterlimit:10;}
	.st7{fill:none;stroke:#808080;stroke-miterlimit:10;}
	.st8{fill:none;stroke:#FFD800;stroke-width:3;stroke-miterlimit:10;}
	.st9{opacity:0.43;}
	.st10{opacity:0.5;}
</style>
<g>
	<path class="st2" d="M6.118,23.065c5.626-5.626,11.323-11.323,16.979-16.979c0.945,0.943,1.936,1.933,2.942,2.936
		c-3.884,3.884-7.836,7.836-11.788,11.787c0.017,0.044,0.034,0.088,0.051,0.132c8.644,0,17.287,0,25.959,0c0,1.463,0,2.845,0,4.286
		c-8.663,0-17.302,0-25.937,0c3.976,3.976,7.925,7.925,11.838,11.838c-1.095,1.092-2.086,2.08-3.028,3.021
		C17.492,34.443,11.788,28.737,6.118,23.065z"/>
</g>
</svg>
