<?xml version="1.0" encoding="utf-8"?>
<!-- Generator: Adobe Illustrator 22.0.0, SVG Export Plug-In . SVG Version: 6.00 Build 0)  -->
<svg version="1.1" id="Layer_1" xmlns="http://www.w3.org/2000/svg" xmlns:xlink="http://www.w3.org/1999/xlink" x="0px" y="0px"
	 width="45.251px" height="45.251px" viewBox="0 0 45.251 45.251" style="enable-background:new 0 0 45.251 45.251;"
	 xml:space="preserve">
<style type="text/css">
	.st0{fill:#FFFFFF;stroke:#FFD800;stroke-width:3;stroke-miterlimit:10;}
	.st1{fill:#FFFFFF;}
	.st2{fill:#FFD800;}
	.st3{fill:#999999;}
	.st4{fill:none;}
	.st5{fill:none;stroke:#FFD800;stroke-width:2;stroke-miterlimit:10;}
	.st6{fill:none;stroke:#000000;stroke-width:2;stroke-miterlimit:10;}
	.st7{fill:none;stroke:#808080;stroke-miterlimit:10;}
	.st8{fill:none;stroke:#FFD800;stroke-width:3;stroke-miterlimit:10;}
	.st9{opacity:0.43;}
	.st10{opacity:0.5;}
</style>
<circle class="st1" cx="22.625" cy="22.625" r="21.424"/>
<g>
	<path d="M8.852,17.514c-0.038-1.327,0.422-2.441,1.378-3.362c0.615-0.592,1.188-1.228,1.815-1.807
		c1.143-1.056,2.559-1.092,3.698-0.037c1.14,1.056,2.242,2.158,3.301,3.295c1.047,1.124,1.016,2.463-0.003,3.618
		c-0.322,0.365-0.641,0.752-1.027,1.039c-0.766,0.57-0.782,1.108-0.237,1.885c1.508,2.15,3.309,3.975,5.523,5.393
		c0.52,0.333,0.942,0.419,1.384-0.157c0.349-0.456,0.797-0.84,1.225-1.229c1.167-1.06,2.548-1.06,3.68,0.029
		c1.077,1.036,2.132,2.095,3.167,3.172c1.092,1.136,1.142,2.517,0.108,3.693c-0.703,0.8-1.443,1.578-2.242,2.28
		c-1.464,1.285-3.189,1.217-4.926,0.737c-4.55-1.258-8.228-3.896-11.34-7.358c-2.365-2.631-4.245-5.568-5.19-9.027
		c-0.112-0.41-0.189-0.832-0.253-1.253C8.867,18.125,8.87,17.818,8.852,17.514z M27.85,34.829c0.496-0.234,1.205-0.441,1.754-0.858
		c0.696-0.53,1.261-1.232,1.886-1.858c0.594-0.595,0.552-1.153-0.044-1.733c-0.983-0.956-1.953-1.927-2.909-2.91
		c-0.575-0.591-1.1-0.536-1.647,0.021c-0.577,0.587-1.109,1.239-1.767,1.717c-0.382,0.277-1.097,0.518-1.451,0.344
		c-3.55-1.745-6.244-4.396-8.038-7.938c-0.339-0.669-0.171-1.22,0.37-1.717c0.583-0.536,1.133-1.107,1.699-1.662
		c0.564-0.554,0.566-1.099-0.001-1.658c-0.673-0.663-1.339-1.334-2.001-2.008c-1.757-1.79-1.672-1.696-3.581-0.015
		c-1.683,1.482-1.937,3.146-1.226,5.093c2.59,7.087,7.474,11.922,14.489,14.622C26.082,34.539,26.858,34.61,27.85,34.829z"/>
	<path d="M36.401,20.734c-0.215,0.174-0.537,0.627-0.788,0.59c-0.339-0.05-0.828-0.43-0.897-0.746
		c-0.44-2.031-1.235-3.882-2.538-5.5c-1.944-2.415-4.435-3.947-7.488-4.538c-0.578-0.112-1-0.368-0.874-1.03
		c0.118-0.622,0.603-0.691,1.134-0.615c0.09,0.013,0.18,0.029,0.27,0.048c3.372,0.725,6.132,2.445,8.283,5.133
		c1.392,1.739,2.305,3.711,2.749,5.897C36.288,20.151,36.322,20.33,36.401,20.734z"/>
	<path d="M24.269,13.559c2.526,0.429,4.427,1.537,5.736,3.44c0.689,1.001,1.083,2.217,1.532,3.367
		c0.198,0.507,0.11,1.074-0.569,1.22c-0.653,0.14-0.907-0.266-1.049-0.846c-0.717-2.926-2.531-4.769-5.48-5.458
		c-0.53-0.124-0.98-0.386-0.837-0.969C23.681,13.994,24.085,13.756,24.269,13.559z"/>
</g>
</svg>
