<?xml version="1.0" encoding="utf-8"?>
<!-- Generator: Adobe Illustrator 22.0.0, SVG Export Plug-In . SVG Version: 6.00 Build 0)  -->
<svg version="1.1" id="Layer_1" xmlns="http://www.w3.org/2000/svg" xmlns:xlink="http://www.w3.org/1999/xlink" x="0px" y="0px"
	 width="45.251px" height="45.251px" viewBox="0 0 45.251 45.251" style="enable-background:new 0 0 45.251 45.251;"
	 xml:space="preserve">
<style type="text/css">
	.st0{fill:#FFFFFF;stroke:#FFD800;stroke-width:3;stroke-miterlimit:10;}
	.st1{fill:#FFFFFF;}
	.st2{fill:#FFD800;}
	.st3{fill:#999999;}
	.st4{fill:none;}
	.st5{fill:none;stroke:#FFD800;stroke-width:2;stroke-miterlimit:10;}
	.st6{fill:none;stroke:#000000;stroke-width:2;stroke-miterlimit:10;}
	.st7{fill:none;stroke:#808080;stroke-miterlimit:10;}
	.st8{fill:none;stroke:#FFD800;stroke-width:3;stroke-miterlimit:10;}
	.st9{opacity:0.43;}
	.st10{opacity:0.5;}
</style>
<circle class="st1" cx="22.625" cy="22.625" r="21.424"/>
<g>
	<path d="M32.951,26.588c-0.053,0.595-0.061,1.08-0.144,1.551c-0.227,1.294-1.227,2.185-2.551,2.219
		c-1.754,0.044-3.509,0.035-5.263,0.039c-2.347,0.005-4.694-0.012-7.041,0.019c-0.304,0.004-0.678,0.163-0.895,0.377
		c-1.482,1.463-2.93,2.961-4.53,4.591c0-1.769,0-3.327,0-4.988c-0.409,0-0.749,0.007-1.089-0.001c-1.695-0.04-2.8-1.116-2.809-2.808
		C8.609,23.881,8.668,20.174,8.6,16.469c-0.029-1.59,1.388-2.946,2.882-2.819c0.258,0.022,0.52,0.003,0.893,0.003
		c0-0.342,0-0.637,0-0.933c0.002-1.734,1.367-2.862,2.868-2.854c6.229,0.037,12.458-0.001,18.687,0.009
		c1.572,0.003,2.678,1.05,2.693,2.617c0.038,3.815,0.037,7.631,0.001,11.446c-0.015,1.571-1.111,2.593-2.68,2.647
		C33.62,26.598,33.296,26.588,32.951,26.588z M14.223,30.909c0.052,0.024,0.103,0.047,0.155,0.071
		c0.554-0.558,1.133-1.093,1.652-1.682c0.424-0.48,0.889-0.665,1.538-0.652c2.127,0.042,4.256,0.019,6.384,0.015
		c1.931-0.004,3.862,0.001,5.792-0.03c1.138-0.018,1.337-0.213,1.373-1.36c0.041-1.315,0.034-2.632,0.03-3.949
		c-0.007-2.281-0.008-4.563-0.054-6.844c-0.016-0.808-0.309-1.066-1.103-1.067c-6.165-0.009-12.331-0.01-18.496-0.001
		c-0.832,0.001-1.117,0.287-1.12,1.111c-0.014,3.62-0.019,7.24-0.007,10.86c0.003,0.999,0.293,1.257,1.32,1.273
		c0.827,0.014,1.654,0.003,2.535,0.003C14.223,29.436,14.223,30.173,14.223,30.909z M14.132,13.649c0.343,0,0.603,0,0.862,0
		c5.066,0.007,10.132,0.015,15.198,0.019c1.044,0.001,1.836,0.478,2.293,1.377c0.247,0.486,0.371,1.083,0.381,1.633
		c0.044,2.477,0.028,4.956,0.034,7.434c0.001,0.233,0,0.467,0,0.734c0.406,0,0.734,0.023,1.056-0.005
		c0.581-0.05,0.935-0.352,0.935-0.969c0.002-3.771,0.003-7.543-0.003-11.314c-0.001-0.62-0.365-0.909-0.957-0.935
		c-0.438-0.02-0.877-0.031-1.315-0.031c-5.198-0.003-10.395-0.003-15.593-0.002c-0.57,0-1.141-0.001-1.71,0.027
		c-0.881,0.044-1.104,0.269-1.179,1.158C14.114,13.031,14.132,13.292,14.132,13.649z"/>
	<path d="M20.777,22.829c-2.457,0-4.914,0.001-7.371-0.001c-0.66,0-1.037-0.292-1.056-0.806c-0.02-0.535,0.333-0.862,0.994-0.862
		c5.002-0.006,10.004-0.002,15.005-0.007c0.575-0.001,0.867,0.301,0.869,0.836c0.003,0.543-0.31,0.84-0.873,0.84
		C25.823,22.828,23.3,22.829,20.777,22.829z"/>
	<path d="M18.87,24.894c1.885,0,3.769,0,5.654,0c0.43,0,0.836,0.127,0.901,0.586c0.039,0.278-0.076,0.643-0.253,0.865
		c-0.13,0.162-0.472,0.212-0.72,0.213c-3.725,0.022-7.451,0.03-11.176,0.032c-0.6,0-0.935-0.334-0.931-0.866
		c0.004-0.526,0.349-0.861,0.937-0.863c1.863-0.008,3.725-0.003,5.588-0.003C18.87,24.87,18.87,24.882,18.87,24.894z"/>
	<path d="M16.959,19.086c-1.226,0-2.451-0.004-3.677,0.002c-0.558,0.003-0.943-0.183-0.961-0.809
		c-0.018-0.615,0.334-0.879,0.901-0.878c2.56,0.005,5.121,0.02,7.681,0.039c0.524,0.004,0.827,0.286,0.816,0.814
		c-0.011,0.553-0.326,0.825-0.885,0.823c-1.291-0.005-2.583-0.001-3.874-0.001C16.959,19.079,16.959,19.083,16.959,19.086z"/>
</g>
</svg>
