<?xml version="1.0" encoding="utf-8"?>
<!-- Generator: Adobe Illustrator 22.0.0, SVG Export Plug-In . SVG Version: 6.00 Build 0)  -->
<svg version="1.1" id="Layer_1" xmlns="http://www.w3.org/2000/svg" xmlns:xlink="http://www.w3.org/1999/xlink" x="0px" y="0px"
	 width="269.209px" height="110.871px" viewBox="0 0 269.209 110.871" style="enable-background:new 0 0 269.209 110.871;"
	 xml:space="preserve">
<style type="text/css">
	.st0{fill:#FFFFFF;stroke:#FFD800;stroke-width:3;stroke-miterlimit:10;}
	.st1{fill:#FFFFFF;}
	.st2{fill:#FFD800;}
	.st3{fill:#999999;}
	.st4{fill:none;}
	.st5{fill:none;stroke:#FFD800;stroke-width:2;stroke-miterlimit:10;}
	.st6{fill:none;stroke:#000000;stroke-width:2;stroke-miterlimit:10;}
	.st7{fill:none;stroke:#808080;stroke-miterlimit:10;}
	.st8{fill:none;stroke:#FFD800;stroke-width:3;stroke-miterlimit:10;}
	.st9{opacity:0.43;}
	.st10{opacity:0.5;}
</style>
<g>
	<g>
		<g>
			<path d="M86.731,75.266c3.93-5.702,5.896-12.269,5.896-19.699c0-9.107-3.188-17.04-9.562-23.799
				c-6.28-6.422-13.781-9.634-22.504-9.634c-9.251,0-16.872,3.211-22.863,9.634c-6.136,6.184-9.202,14.117-9.202,23.799
				c0,10.976,3.81,19.677,11.431,26.099c5.56,4.506,11.815,6.973,18.766,7.405l13.373,16.896c-1.775,0.336-3.62,0.574-5.536,0.718
				c-1.918,0.144-3.907,0.216-5.968,0.216c-14.667,0-26.89-5.034-36.667-15.099C14.115,81.45,9.226,69.371,9.226,55.566
				c0-9.635,2.301-18.359,6.902-26.171c4.697-7.909,10.952-14.163,18.765-18.765C42.706,6.077,51.262,3.8,60.561,3.8
				c14.283,0,26.194,5.034,35.733,15.099c10.066,10.114,15.098,22.336,15.098,36.667c0,13.373-4.266,24.973-12.798,34.799
				L86.731,75.266z"/>
		</g>
		<path class="st2" d="M77.853,63.676H55.055c5.651,7.294,28.132,36.15,33.831,43.396h23.057L77.853,63.676z"/>
	</g>
	<g>
		<path d="M128.708,107.072c-5.676,0-9.991-2.946-12.947-8.838l6.592-3.931c1.931,3.626,4.118,5.439,6.562,5.439
			c1.281,0,2.404-0.374,3.37-1.123c0.867-0.808,1.301-1.685,1.301-2.631c0-0.926-0.306-1.862-0.916-2.808
			c-0.394-0.453-0.966-1.02-1.714-1.7c-0.749-0.68-1.685-1.493-2.808-2.439c-2.148-1.793-3.927-3.374-5.336-4.744
			c-1.409-1.369-2.439-2.537-3.089-3.503c-1.38-1.97-2.069-3.902-2.069-5.794c0-2.838,1.064-5.271,3.192-7.302
			c2.207-2.01,4.828-3.015,7.863-3.015c2.088,0,4.03,0.503,5.823,1.508c0.926,0.454,1.882,1.104,2.867,1.951
			c0.985,0.848,2.03,1.882,3.133,3.104l-5.823,5.055c-1.951-2.739-3.951-4.109-6.001-4.109c-1.143,0-1.951,0.246-2.424,0.739
			c-0.631,0.493-0.946,1.123-0.946,1.892c0,0.591,0.187,1.202,0.562,1.833c0.374,0.394,1.029,1.01,1.966,1.847
			c0.936,0.838,2.163,1.917,3.68,3.237c1.774,1.478,3.123,2.651,4.05,3.517c0.611,0.552,1.064,0.946,1.36,1.183
			c2.759,2.66,4.138,5.715,4.138,9.163c0,3.39-1.134,6.149-3.4,8.277C135.448,106.007,132.452,107.072,128.708,107.072z"/>
		<path d="M179.994,64.683v42.388h-7.715l-18.327-27.786v27.786h-7.863V64.683h7.685l18.12,27.993V64.683H179.994z"/>
		<path d="M209.465,64.683l0.207,0.591l-4.138,10.671l-5.735,14.573h11.439l-2.749-6.887l4.138-10.671l13.213,34.112h-8.513
			l-3.133-8.69h-17.352l-3.547,8.69h-8.277l16.347-42.388H209.465z"/>
		<path d="M238.788,107.072h-8.099V64.683h15.519c3.764,0,6.986,1.33,9.666,3.99c2.739,2.681,4.109,5.893,4.109,9.636v0.562
			c0,3.744-1.37,6.957-4.109,9.636c-2.7,2.641-5.922,3.961-9.666,3.961h-7.419V107.072z M245.41,84.577
			c1.694,0,3.094-0.562,4.197-1.685c1.123-1.103,1.685-2.502,1.685-4.197c0-1.695-0.561-3.143-1.685-4.345
			c-1.123-1.182-2.523-1.774-4.197-1.774h-6.621v12.001H245.41z"/>
	</g>
</g>
</svg>
