<?xml version="1.0" encoding="utf-8"?>
<!-- Generator: Adobe Illustrator 22.0.0, SVG Export Plug-In . SVG Version: 6.00 Build 0)  -->
<svg version="1.1" id="Layer_1" xmlns="http://www.w3.org/2000/svg" xmlns:xlink="http://www.w3.org/1999/xlink" x="0px" y="0px"
	 width="45.251px" height="45.251px" viewBox="0 0 45.251 45.251" style="enable-background:new 0 0 45.251 45.251;"
	 xml:space="preserve">
<style type="text/css">
	.st0{fill:#FFFFFF;stroke:#FFD800;stroke-width:3;stroke-miterlimit:10;}
	.st1{fill:#FFFFFF;}
	.st2{fill:#FFD800;}
	.st3{fill:#999999;}
	.st4{fill:none;}
	.st5{fill:none;stroke:#FFD800;stroke-width:2;stroke-miterlimit:10;}
	.st6{fill:none;stroke:#000000;stroke-width:2;stroke-miterlimit:10;}
	.st7{fill:none;stroke:#808080;stroke-miterlimit:10;}
	.st8{fill:none;stroke:#FFD800;stroke-width:3;stroke-miterlimit:10;}
	.st9{opacity:0.43;}
	.st10{opacity:0.5;}
</style>
<circle class="st1" cx="22.625" cy="22.625" r="21.424"/>
<g>
	<path d="M13.298,15.813c-0.557,0-1.036,0.003-1.515-0.001c-0.644-0.005-1.04-0.328-1.037-0.836
		c0.004-0.514,0.389-0.835,1.047-0.838c1.691-0.007,3.381-0.003,5.072-0.003c0.198,0,0.396,0,0.691,0
		c0-0.597-0.003-1.151,0.001-1.705c0.009-1.482,1.069-2.545,2.545-2.547c1.691-0.003,3.381-0.003,5.072,0.001
		c1.49,0.003,2.539,1.05,2.55,2.539c0.004,0.541,0.001,1.081,0.001,1.71c0.242,0,0.435,0,0.628,0c1.65,0,3.301-0.002,4.951,0.004
		c0.218,0.001,0.506-0.036,0.64,0.082c0.245,0.216,0.535,0.524,0.559,0.813c0.034,0.423-0.277,0.753-0.756,0.771
		c-0.559,0.02-1.119,0.005-1.762,0.005c0,0.282,0,0.515,0,0.748c0,5.031,0.001,10.063-0.001,15.094
		c-0.001,2.224-1.486,3.717-3.695,3.718c-3.784,0.001-7.567,0.001-11.351,0c-2.125-0.001-3.635-1.515-3.637-3.653
		c-0.003-5.052-0.001-10.103-0.002-15.155C13.298,16.341,13.298,16.121,13.298,15.813z M30.303,15.858c-5.143,0-10.219,0-15.324,0
		c0,0.188,0,0.327,0,0.467c0.001,5.152,0,10.305,0.003,15.457c0.001,1.349,0.552,1.893,1.918,1.894
		c3.844,0.003,7.688,0.003,11.533,0c1.299-0.001,1.868-0.577,1.87-1.883c0.003-1.691,0.001-3.381,0.001-5.072
		C30.303,23.119,30.303,19.517,30.303,15.858z M26.054,14.107c0-0.697,0.009-1.318-0.003-1.938c-0.007-0.386-0.226-0.589-0.614-0.59
		c-1.871-0.002-3.742-0.016-5.612,0.02c-0.2,0.004-0.547,0.287-0.565,0.467c-0.068,0.669-0.027,1.35-0.027,2.041
		C21.53,14.107,23.757,14.107,26.054,14.107z"/>
	<path d="M26.064,25.57c0-1.507-0.002-3.015,0.001-4.522c0.001-0.574,0.296-0.926,0.774-0.946c0.528-0.022,0.876,0.307,0.878,0.917
		c0.011,3.055,0.01,6.11,0.001,9.165c-0.002,0.574-0.328,0.917-0.817,0.929c-0.495,0.012-0.834-0.366-0.836-0.96
		C26.06,28.625,26.064,27.098,26.064,25.57z"/>
	<path d="M19.218,25.648c0,1.467,0.003,2.935-0.001,4.402c-0.002,0.678-0.284,1.049-0.794,1.066
		c-0.536,0.018-0.865-0.381-0.866-1.07c-0.001-2.975,0.005-5.95,0-8.924c-0.001-0.411,0.078-0.768,0.484-0.953
		c0.592-0.27,1.171,0.134,1.176,0.837c0.012,1.548,0.004,3.095,0.004,4.643C19.219,25.648,19.219,25.648,19.218,25.648z"/>
	<path d="M21.821,25.526c0-1.487-0.003-2.974,0.001-4.461c0.002-0.641,0.278-0.955,0.817-0.953c0.535,0.002,0.823,0.316,0.824,0.955
		c0.005,3.034,0.002,6.068-0.004,9.103c-0.001,0.586-0.357,0.965-0.85,0.947c-0.477-0.017-0.785-0.368-0.788-0.949
		c-0.009-1.547-0.003-3.094-0.003-4.642C21.819,25.526,21.82,25.526,21.821,25.526z"/>
</g>
</svg>
