<?xml version="1.0" encoding="utf-8"?>
<!-- Generator: Adobe Illustrator 22.0.0, SVG Export Plug-In . SVG Version: 6.00 Build 0)  -->
<svg version="1.1" id="Layer_1" xmlns="http://www.w3.org/2000/svg" xmlns:xlink="http://www.w3.org/1999/xlink" x="0px" y="0px"
	 width="38.149px" height="38.15px" viewBox="0 0 38.149 38.15" style="enable-background:new 0 0 38.149 38.15;"
	 xml:space="preserve">
<style type="text/css">
	.st0{fill:#FFFFFF;stroke:#FFD800;stroke-width:3;stroke-miterlimit:10;}
	.st1{fill:#FFFFFF;}
	.st2{fill:#FFD800;}
	.st3{fill:#999999;}
	.st4{fill:none;}
	.st5{fill:none;stroke:#FFD800;stroke-width:2;stroke-miterlimit:10;}
	.st6{fill:none;stroke:#000000;stroke-width:2;stroke-miterlimit:10;}
	.st7{fill:none;stroke:#808080;stroke-miterlimit:10;}
	.st8{fill:none;stroke:#FFD800;stroke-width:3;stroke-miterlimit:10;}
	.st9{opacity:0.43;}
	.st10{opacity:0.5;}
</style>
<g>
	<g>
		<path d="M18.667,10.397c0.54,0.416,1.071,0.825,1.611,1.241c-0.016,0.022-0.033,0.049-0.053,0.074
			c-2.194,2.839-4.389,5.677-6.583,8.516c-1.198,1.55-2.397,3.099-3.592,4.651c-0.046,0.06-0.072,0.145-0.084,0.222
			c-0.249,1.569-0.494,3.138-0.74,4.707c-0.015,0.095-0.033,0.19-0.042,0.286c-0.003,0.029,0.013,0.072,0.036,0.089
			c0.353,0.275,0.707,0.549,1.064,0.818c0.025,0.019,0.08,0.02,0.112,0.006c1.167-0.506,2.332-1.015,3.498-1.523
			c0.329-0.143,0.657-0.287,0.984-0.434c0.047-0.021,0.093-0.057,0.124-0.098c1.067-1.384,2.132-2.768,3.197-4.154
			c1.733-2.255,3.466-4.511,5.199-6.766c0.621-0.808,1.241-1.616,1.861-2.424c0.02-0.026,0.035-0.057,0.045-0.074
			c0.611,0.47,1.211,0.932,1.82,1.402c-0.036,0.045-0.084,0.102-0.13,0.161c-0.811,1.042-1.622,2.085-2.433,3.128
			c-1.193,1.534-2.386,3.068-3.58,4.602c-1.182,1.52-2.364,3.04-3.546,4.559c-0.074,0.095-0.149,0.19-0.224,0.286
			c-0.11,0.139-0.207,0.28-0.267,0.455c-0.1,0.291-0.318,0.481-0.603,0.601c-0.45,0.189-0.896,0.387-1.343,0.584
			c-1.63,0.718-3.259,1.438-4.889,2.157c-0.681,0.301-1.363,0.6-2.043,0.902c-0.605,0.268-1.254,0.016-1.484-0.578
			c-0.072-0.188-0.085-0.38-0.054-0.579c0.228-1.426,0.454-2.851,0.681-4.277c0.244-1.533,0.489-3.066,0.733-4.599
			c0.046-0.288,0.181-0.521,0.408-0.703c0.035-0.028,0.067-0.061,0.094-0.096c0.726-0.932,1.452-1.865,2.177-2.798
			c1.223-1.572,2.445-3.145,3.668-4.717c1.191-1.532,2.383-3.064,3.574-4.595c0.251-0.322,0.501-0.644,0.751-0.966
			C18.631,10.439,18.649,10.419,18.667,10.397z"/>
		<path d="M13.426,27.936c-0.142-0.499-0.278-0.975-0.41-1.452c-0.022-0.079-0.047-0.123-0.145-0.13
			c-0.535-0.038-1.07-0.087-1.604-0.132c-0.018-0.001-0.035-0.005-0.068-0.011c3.469-4.515,6.932-9.021,10.388-13.518
			c0.758,0.584,1.51,1.164,2.27,1.75C20.389,18.928,16.914,23.424,13.426,27.936z"/>
		<path d="M22.196,6.053c0.13-0.174,0.255-0.344,0.384-0.511c0.252-0.328,0.484-0.675,0.765-0.976
			c0.445-0.479,1.02-0.706,1.672-0.737C25.677,3.797,26.261,4,26.783,4.404c1.322,1.023,2.646,2.042,3.97,3.061
			c0.589,0.453,0.941,1.043,1.024,1.785c0.069,0.622-0.072,1.198-0.43,1.708c-0.327,0.467-0.679,0.918-1.027,1.386
			C27.612,10.247,24.907,8.152,22.196,6.053z"/>
		<path d="M29.592,13.764c-0.503,0.6-1.01,1.206-1.515,1.809c-2.823-2.176-5.64-4.347-8.465-6.524
			c0.492-0.612,0.987-1.228,1.477-1.838C23.924,9.396,26.755,11.578,29.592,13.764z"/>
	</g>
</g>
</svg>
