<?xml version="1.0" encoding="utf-8"?>
<!-- Generator: Adobe Illustrator 22.0.0, SVG Export Plug-In . SVG Version: 6.00 Build 0)  -->
<svg version="1.1" id="Layer_1" xmlns="http://www.w3.org/2000/svg" xmlns:xlink="http://www.w3.org/1999/xlink" x="0px" y="0px"
	 width="92.977px" height="92.977px" viewBox="0 0 92.977 92.977" style="enable-background:new 0 0 92.977 92.977;"
	 xml:space="preserve">
<style type="text/css">
	.st0{fill:#FFFFFF;stroke:#FFD800;stroke-width:3;stroke-miterlimit:10;}
	.st1{fill:#FFFFFF;}
	.st2{fill:#FFD800;}
	.st3{fill:#999999;}
	.st4{fill:none;}
	.st5{fill:none;stroke:#FFD800;stroke-width:2;stroke-miterlimit:10;}
	.st6{fill:none;stroke:#000000;stroke-width:2;stroke-miterlimit:10;}
	.st7{fill:none;stroke:#808080;stroke-miterlimit:10;}
	.st8{fill:none;stroke:#FFD800;stroke-width:3;stroke-miterlimit:10;}
	.st9{opacity:0.43;}
	.st10{opacity:0.5;}
</style>
<g>
	<g>
		
			<image style="overflow:visible;opacity:0.75;" width="85" height="85" xlink:href="E1795614.png"  transform="matrix(1 0 0 1 3.6432 4.0949)">
		</image>
		<g>
			<circle class="st2" cx="44.488" cy="45.488" r="27"/>
		</g>
	</g>
	<path d="M44.075,48.269c-1.363,1.363-2.672,2.691-4.003,3.996c-0.88,0.863-1.857,1-2.676,0.428
		c-1.118-0.781-1.209-2.124-0.167-3.199c1.301-1.342,2.639-2.649,4.067-4.077c-0.819-0.819-1.584-1.584-2.349-2.349
		c-0.475-0.475-0.952-0.949-1.426-1.426c-1.207-1.216-1.355-2.295-0.445-3.225c0.92-0.939,2.029-0.813,3.225,0.374
		c1.004,0.997,2,2.003,3.004,3c0.244,0.243,0.507,0.466,0.843,0.774c1.363-1.363,2.672-2.691,4.004-3.997
		c0.88-0.863,1.853-0.999,2.676-0.427c1.118,0.777,1.209,2.123,0.167,3.198c-1.301,1.342-2.639,2.649-4.068,4.078
		c1.368,1.368,2.692,2.676,3.997,4.002c0.879,0.893,1.041,1.844,0.497,2.671c-0.747,1.136-2.125,1.265-3.191,0.246
		c-1.126-1.075-2.206-2.197-3.31-3.294C44.674,48.801,44.411,48.577,44.075,48.269z"/>
</g>
</svg>
