<?xml version="1.0" encoding="utf-8"?>
<!-- Generator: Adobe Illustrator 22.0.0, SVG Export Plug-In . SVG Version: 6.00 Build 0)  -->
<svg version="1.1" id="Layer_1" xmlns="http://www.w3.org/2000/svg" xmlns:xlink="http://www.w3.org/1999/xlink" x="0px" y="0px"
	 width="46.378px" height="46.172px" viewBox="0 0 46.378 46.172" style="enable-background:new 0 0 46.378 46.172;"
	 xml:space="preserve">
<style type="text/css">
	.st0{fill:#FFFFFF;stroke:#FFD800;stroke-width:3;stroke-miterlimit:10;}
	.st1{fill:#FFFFFF;}
	.st2{fill:#FFD800;}
	.st3{fill:#999999;}
	.st4{fill:none;}
	.st5{fill:none;stroke:#FFD800;stroke-width:2;stroke-miterlimit:10;}
	.st6{fill:none;stroke:#000000;stroke-width:2;stroke-miterlimit:10;}
	.st7{fill:none;stroke:#808080;stroke-miterlimit:10;}
	.st8{fill:none;stroke:#FFD800;stroke-width:3;stroke-miterlimit:10;}
	.st9{opacity:0.43;}
	.st10{opacity:0.5;}
</style>
<g>
	<path class="st2" d="M14.076,40.586c-0.119,0-0.238,0-0.357,0c-0.008-0.008-0.014-0.021-0.024-0.024
		c-0.655-0.2-0.936-0.575-0.936-1.254c0-1.53,0-3.059,0-4.589c0-0.069,0-0.138,0-0.22c-0.162,0-0.298-0.001-0.434,0
		c-0.554,0.003-1.106-0.003-1.647-0.151c-1.965-0.536-3.267-2.255-3.268-4.337c-0.002-6.648-0.003-13.295,0.004-19.943
		c0-0.354,0.034-0.717,0.114-1.061c0.468-2.025,2.223-3.416,4.302-3.419c3.624-0.004,7.249-0.001,10.873-0.001
		c3.94,0,7.88-0.002,11.819,0.001c2.031,0.001,3.755,1.316,4.278,3.269c0.085,0.319,0.113,0.653,0.167,0.98
		c0,6.809,0,13.619,0,20.428c-0.01,0.057-0.019,0.115-0.031,0.172c-0.08,0.382-0.121,0.779-0.248,1.145
		c-0.615,1.775-2.275,2.918-4.212,2.92c-2.749,0.003-5.497,0-8.246,0.004c-0.108,0-0.228,0.02-0.323,0.068
		c-3.179,1.626-6.354,3.26-9.533,4.886C15.616,39.848,14.843,40.211,14.076,40.586z M15.059,37.552
		c0.082-0.039,0.131-0.06,0.177-0.084c3.288-1.689,6.576-3.377,9.862-5.07c0.261-0.134,0.528-0.198,0.821-0.198
		c2.821,0.003,5.642,0.002,8.463,0.001c0.172,0,0.347,0.002,0.516-0.028c1.073-0.193,1.761-1.038,1.761-2.162
		c0.001-6.647,0.001-13.295-0.001-19.942c0-0.148-0.003-0.299-0.03-0.444c-0.2-1.049-1.048-1.746-2.125-1.746
		c-7.54-0.001-15.08-0.001-22.621,0c-1.257,0-2.169,0.915-2.17,2.176c-0.001,6.659-0.001,13.319,0,19.978
		c0,1.266,0.903,2.168,2.169,2.173c0.643,0.002,1.285-0.002,1.928,0.002c0.136,0.001,0.275,0.011,0.406,0.046
		c0.529,0.142,0.841,0.58,0.843,1.179c0.003,1.291,0.001,2.583,0.001,3.874C15.059,37.377,15.059,37.448,15.059,37.552z"/>
	<path class="st2" d="M23.181,14.242c-1.61,0.003-2.891,1.27-2.953,2.921c-0.02,0.538-0.297,0.94-0.756,1.099
		c-0.736,0.254-1.508-0.289-1.497-1.076c0.023-1.636,0.656-3.001,1.93-4.028c3.042-2.45,7.512-0.872,8.373,2.94
		c0.528,2.34-0.683,4.772-2.893,5.813c-0.177,0.083-0.358,0.167-0.514,0.281c-0.339,0.249-0.517,0.595-0.554,1.016
		c-0.014,0.165-0.026,0.336-0.078,0.491c-0.173,0.515-0.721,0.829-1.245,0.732c-0.57-0.106-0.966-0.594-0.938-1.173
		c0.076-1.543,0.808-2.661,2.211-3.309c0.904-0.417,1.524-1.062,1.775-2.033C26.521,16.061,25.098,14.239,23.181,14.242z"/>
	<path class="st2" d="M23.067,25.679c0.888-0.004,1.616,0.718,1.616,1.606c0.001,0.885-0.73,1.616-1.613,1.613
		c-0.88-0.003-1.6-0.721-1.604-1.601C21.462,26.403,22.174,25.683,23.067,25.679z"/>
</g>
</svg>
