<?xml version="1.0" encoding="utf-8"?>
<!-- Generator: Adobe Illustrator 22.0.0, SVG Export Plug-In . SVG Version: 6.00 Build 0)  -->
<svg version="1.1" id="Layer_1" xmlns="http://www.w3.org/2000/svg" xmlns:xlink="http://www.w3.org/1999/xlink" x="0px" y="0px"
	 width="46.378px" height="46.172px" viewBox="0 0 46.378 46.172" style="enable-background:new 0 0 46.378 46.172;"
	 xml:space="preserve">
<style type="text/css">
	.st0{fill:#FFFFFF;stroke:#FFD800;stroke-width:3;stroke-miterlimit:10;}
	.st1{fill:#FFFFFF;}
	.st2{fill:#FFD800;}
	.st3{fill:#999999;}
	.st4{fill:none;}
	.st5{fill:none;stroke:#FFD800;stroke-width:2;stroke-miterlimit:10;}
	.st6{fill:none;stroke:#000000;stroke-width:2;stroke-miterlimit:10;}
	.st7{fill:none;stroke:#808080;stroke-miterlimit:10;}
	.st8{fill:none;stroke:#FFD800;stroke-width:3;stroke-miterlimit:10;}
	.st9{opacity:0.43;}
	.st10{opacity:0.5;}
</style>
<g>
	<path class="st2" d="M27.492,7.266c0.728,0.295,0.98,0.858,0.977,1.614c-0.013,2.895,0,5.789-0.008,8.684
		c-0.003,0.95-0.357,1.42-1.115,1.547c-0.882,0.148-1.525-0.453-1.53-1.48c-0.013-2.306-0.004-4.613-0.004-6.919
		c0-0.252,0-0.505,0-0.78c-5.319,0-10.554,0-15.829,0c0,8.781,0,17.521,0,26.302c5.276,0,10.511,0,15.829,0c0-0.514,0-1.001,0-1.489
		c0-2.071-0.009-4.142,0.005-6.213c0.007-1.025,0.649-1.622,1.534-1.477c0.751,0.123,1.109,0.6,1.112,1.55
		c0.008,2.659,0.003,5.319,0.003,7.978c0,0.235-0.01,0.471,0.002,0.706c0.036,0.758-0.246,1.319-0.973,1.615
		c-6.726,0-13.452,0-20.188,0c0-10.53,0-21.059,0-31.639C14.026,7.266,20.759,7.266,27.492,7.266z"/>
	<path class="st2" d="M39.074,23.368c-0.323,0.39-0.619,0.808-0.974,1.166c-1.556,1.572-3.13,3.127-4.697,4.688
		c-0.473,0.471-1.022,0.58-1.606,0.264c-0.532-0.288-0.767-0.785-0.628-1.368c0.071-0.297,0.278-0.591,0.496-0.817
		c0.908-0.943,1.844-1.86,2.907-2.925c-0.42,0-0.665,0-0.91,0c-5.201,0-10.402,0.002-15.602-0.002
		c-1.079-0.001-1.568-0.512-1.461-1.499c0.067-0.622,0.424-0.978,1.035-1.063c0.254-0.035,0.517-0.018,0.775-0.018
		c5.318-0.001,10.635-0.001,16.075-0.001c-0.16-0.206-0.251-0.35-0.368-0.467c-0.83-0.834-1.671-1.657-2.497-2.495
		c-0.611-0.62-0.647-1.393-0.11-1.932c0.537-0.54,1.313-0.515,1.941,0.1c1.731,1.696,3.453,3.402,5.167,5.115
		c0.191,0.191,0.306,0.457,0.456,0.688C39.074,22.992,39.074,23.18,39.074,23.368z"/>
</g>
</svg>
