<?xml version="1.0" encoding="utf-8"?>
<!-- Generator: Adobe Illustrator 22.0.0, SVG Export Plug-In . SVG Version: 6.00 Build 0)  -->
<svg version="1.1" id="Layer_1" xmlns="http://www.w3.org/2000/svg" xmlns:xlink="http://www.w3.org/1999/xlink" x="0px" y="0px"
	 width="92.977px" height="92.977px" viewBox="0 0 92.977 92.977" style="enable-background:new 0 0 92.977 92.977;"
	 xml:space="preserve">
<style type="text/css">
	.st0{fill:#FFFFFF;stroke:#FFD800;stroke-width:3;stroke-miterlimit:10;}
	.st1{fill:#FFFFFF;}
	.st2{fill:#FFD800;}
	.st3{fill:#999999;}
	.st4{fill:none;}
	.st5{fill:none;stroke:#FFD800;stroke-width:2;stroke-miterlimit:10;}
	.st6{fill:none;stroke:#000000;stroke-width:2;stroke-miterlimit:10;}
	.st7{fill:none;stroke:#808080;stroke-miterlimit:10;}
	.st8{fill:none;stroke:#FFD800;stroke-width:3;stroke-miterlimit:10;}
	.st9{opacity:0.43;}
	.st10{opacity:0.5;}
</style>
<g>
	<g>
		
			<image style="overflow:visible;opacity:0.75;" width="84" height="84" xlink:href="2F5A9D70.png"  transform="matrix(1 0 0 1 4.4883 4.4883)">
		</image>
		<g>
			<circle class="st2" cx="44.488" cy="45.488" r="27"/>
		</g>
	</g>
	<path d="M46.101,47.465c0,1.927,0.014,3.792-0.005,5.657c-0.012,1.232-0.606,2.02-1.59,2.195c-1.343,0.238-2.356-0.647-2.38-2.144
		c-0.029-1.869-0.007-3.739-0.007-5.759c-1.158,0-2.24,0-3.322,0c-0.672,0-1.344,0.002-2.017,0
		c-1.713-0.006-2.581-0.664-2.595-1.966c-0.014-1.315,0.86-2.01,2.545-2.016c1.415-0.005,2.83,0.002,4.245-0.003
		c0.344-0.001,0.688-0.029,1.143-0.049c0-1.927-0.014-3.792,0.005-5.657c0.012-1.232,0.604-2.017,1.59-2.194
		c1.339-0.241,2.356,0.646,2.379,2.143c0.029,1.869,0.007,3.739,0.007,5.76c1.935,0,3.796-0.011,5.656,0.004
		c1.253,0.01,2.04,0.568,2.24,1.538c0.276,1.332-0.608,2.397-2.082,2.431c-1.556,0.036-3.113,0.006-4.67,0.012
		C46.901,47.417,46.556,47.444,46.101,47.465z"/>
</g>
</svg>
