<?xml version="1.0" encoding="utf-8"?>
<!-- Generator: Adobe Illustrator 22.0.0, SVG Export Plug-In . SVG Version: 6.00 Build 0)  -->
<svg version="1.1" id="Layer_1" xmlns="http://www.w3.org/2000/svg" xmlns:xlink="http://www.w3.org/1999/xlink" x="0px" y="0px"
	 width="46.378px" height="46.172px" viewBox="0 0 46.378 46.172" style="enable-background:new 0 0 46.378 46.172;"
	 xml:space="preserve">
<style type="text/css">
	.st0{fill:#FFFFFF;stroke:#FFD800;stroke-width:3;stroke-miterlimit:10;}
	.st1{fill:#FFFFFF;}
	.st2{fill:#FFD800;}
	.st3{fill:#999999;}
	.st4{fill:none;}
	.st5{fill:none;stroke:#FFD800;stroke-width:2;stroke-miterlimit:10;}
	.st6{fill:none;stroke:#000000;stroke-width:2;stroke-miterlimit:10;}
	.st7{fill:none;stroke:#808080;stroke-miterlimit:10;}
	.st8{fill:none;stroke:#FFD800;stroke-width:3;stroke-miterlimit:10;}
	.st9{opacity:0.43;}
	.st10{opacity:0.5;}
</style>
<g>
	<path class="st2" d="M7.716,17.435c-0.001-2.183-0.003-4.367,0-6.55c0.002-1.585,0.347-1.92,1.97-1.923
		c1.181-0.002,2.365-0.048,3.543,0.014c1.092,0.057,1.898-0.391,2.437-1.264c0.542-0.877,1.013-1.806,1.427-2.751
		c0.342-0.781,0.816-1.177,1.705-1.167c2.935,0.031,5.87,0.025,8.805,0.003c0.831-0.006,1.313,0.349,1.644,1.097
		c0.418,0.944,0.881,1.876,1.415,2.759c0.553,0.914,1.378,1.381,2.514,1.324c1.321-0.065,2.648-0.012,3.972-0.016
		c0.891-0.003,1.497,0.403,1.493,1.314c-0.025,5.044,0.161,10.106-0.214,15.126c-0.412,5.498-3.528,9.684-7.825,12.914
		c-2.012,1.512-4.311,2.65-6.527,3.871c-0.428,0.236-1.153,0.254-1.611,0.062c-4.613-1.923-8.564-4.74-11.476-8.866
		C8.82,30.316,7.722,26.89,7.717,23.126C7.714,21.229,7.716,19.332,7.716,17.435z M10.295,11.54c0,3.961-0.002,7.785,0.001,11.61
		c0.002,3.448,1.078,6.537,3.157,9.274c2.417,3.181,5.566,5.43,9.185,7.04c0.353,0.157,0.941,0.119,1.277-0.075
		c1.822-1.052,3.716-2.033,5.37-3.315c4.537-3.517,7.004-8.097,6.812-13.984c-0.103-3.147-0.017-6.3-0.02-9.45
		c0-0.345-0.031-0.689-0.051-1.1c-0.974,0-1.866-0.044-2.752,0.009c-2.113,0.125-3.65-0.829-4.792-2.51
		c-0.44-0.647-0.735-1.394-1.184-2.034c-0.2-0.286-0.611-0.581-0.937-0.594c-1.501-0.063-3.017,0.087-4.506-0.058
		c-1.745-0.17-2.815,0.263-3.6,2.02c-0.989,2.216-2.89,3.389-5.464,3.176C12.013,11.486,11.225,11.54,10.295,11.54z"/>
	<path class="st2" d="M23.159,30.019c-2.557,0-3.418-0.848-3.407-3.392c0.006-1.379-0.012-2.659-0.834-3.955
		c-1.103-1.741-0.295-4.17,1.49-5.487c1.801-1.329,4.243-1.203,5.924,0.304c1.631,1.463,2.111,3.794,0.968,5.523
		c-0.553,0.837-0.749,1.649-0.68,2.594c0.024,0.32,0.004,0.643,0.004,0.965C26.623,29.19,25.79,30.019,23.159,30.019z
		 M24.046,27.389c0-1.149-0.068-2.255,0.028-3.347c0.049-0.552,0.284-1.166,0.628-1.598c0.788-0.99,0.842-2.137-0.006-2.976
		c-0.827-0.818-2.166-0.827-3.002-0.021c-0.859,0.828-0.815,1.996-0.049,2.979c0.359,0.461,0.598,1.11,0.653,1.695
		c0.102,1.085,0.029,2.187,0.029,3.268C22.969,27.389,23.457,27.389,24.046,27.389z"/>
</g>
</svg>
