<?xml version="1.0" encoding="utf-8"?>
<!-- Generator: Adobe Illustrator 22.0.0, SVG Export Plug-In . SVG Version: 6.00 Build 0)  -->
<svg version="1.1" id="Layer_1" xmlns="http://www.w3.org/2000/svg" xmlns:xlink="http://www.w3.org/1999/xlink" x="0px" y="0px"
	 width="38.149px" height="38.15px" viewBox="0 0 38.149 38.15" style="enable-background:new 0 0 38.149 38.15;"
	 xml:space="preserve">
<style type="text/css">
	.st0{fill:#FFFFFF;stroke:#FFD800;stroke-width:3;stroke-miterlimit:10;}
	.st1{fill:#FFFFFF;}
	.st2{fill:#FFD800;}
	.st3{fill:#999999;}
	.st4{fill:none;}
	.st5{fill:none;stroke:#FFD800;stroke-width:2;stroke-miterlimit:10;}
	.st6{fill:none;stroke:#000000;stroke-width:2;stroke-miterlimit:10;}
	.st7{fill:none;stroke:#808080;stroke-miterlimit:10;}
	.st8{fill:none;stroke:#FFD800;stroke-width:3;stroke-miterlimit:10;}
	.st9{opacity:0.43;}
	.st10{opacity:0.5;}
</style>
<g>
	<g>
		<path class="st1" d="M24.535,19.676c2.031,0.668,3.803,1.557,5.349,2.848c3.546,2.961,5.366,6.783,5.613,11.371
			c0.062,1.156-0.402,1.607-1.583,1.608c-9.894,0.002-19.788,0.002-29.683,0c-1.207,0-1.631-0.462-1.584-1.694
			C2.89,27.51,6.937,22.035,12.895,19.941c0.2-0.07,0.394-0.16,0.691-0.281c-2.632-2.098-3.994-4.75-3.869-8.053
			c0.096-2.521,1.101-4.673,2.936-6.42c3.555-3.386,9.295-3.391,12.839,0c2.109,2.018,3.099,4.51,2.928,7.417
			C28.249,15.506,26.892,17.816,24.535,19.676z M33.11,33.123c-0.501-4.225-2.497-7.452-6.009-9.742
			c-3.024-1.97-6.406-2.153-9.867-1.952c-2.992,0.174-5.623,1.233-7.86,3.215c-2.533,2.243-3.972,5.057-4.316,8.478
			C14.433,33.123,23.733,33.123,33.11,33.123z M19.052,4.976c-3.86,0.009-7.037,3.199-7.046,7.076
			c-0.009,3.814,3.279,7.082,7.092,7.05c3.857-0.032,7.07-3.269,7.043-7.096C26.114,8.133,22.921,4.967,19.052,4.976z"/>
	</g>
</g>
</svg>
