<?xml version="1.0" encoding="utf-8"?>
<!-- Generator: Adobe Illustrator 22.0.0, SVG Export Plug-In . SVG Version: 6.00 Build 0)  -->
<svg version="1.1" id="Layer_1" xmlns="http://www.w3.org/2000/svg" xmlns:xlink="http://www.w3.org/1999/xlink" x="0px" y="0px"
	 width="46.378px" height="46.172px" viewBox="0 0 46.378 46.172" style="enable-background:new 0 0 46.378 46.172;"
	 xml:space="preserve">
<style type="text/css">
	.st0{fill:#FFFFFF;stroke:#FFD800;stroke-width:3;stroke-miterlimit:10;}
	.st1{fill:#FFFFFF;}
	.st2{fill:#FFD800;}
	.st3{fill:#999999;}
	.st4{fill:none;}
	.st5{fill:none;stroke:#FFD800;stroke-width:2;stroke-miterlimit:10;}
	.st6{fill:none;stroke:#000000;stroke-width:2;stroke-miterlimit:10;}
	.st7{fill:none;stroke:#808080;stroke-miterlimit:10;}
	.st8{fill:none;stroke:#FFD800;stroke-width:3;stroke-miterlimit:10;}
	.st9{opacity:0.43;}
	.st10{opacity:0.5;}
</style>
<g>
	<g>
		<path class="st2" d="M3.591,26.476c0.524-1.312,1.527-1.768,2.889-1.704c1.156,0.055,2.321-0.054,3.473,0.033
			c0.828,0.063,1.64,0.328,2.768,0.569c2.037-0.755,3.648-2.382,4.349-4.9c0.317-1.138,0.808-2.226,1.186-3.349
			c0.229-0.681,0.636-0.9,1.327-0.722c1.484,0.381,2.741,1.044,3.492,2.478c0.117,0.223,0.533,0.4,0.815,0.407
			c1.621,0.038,3.245-0.023,4.864,0.045c0.463,0.019,0.996,0.26,1.35,0.568c0.735,0.641,1.371,1.395,2.145,2.205
			c0.787-0.818,1.449-1.586,2.202-2.251c0.329-0.291,0.838-0.504,1.276-0.524c1.416-0.066,2.837-0.012,4.256-0.031
			c0.947-0.013,1.191-0.257,1.193-1.192c0.009-3.968-0.004-7.935,0.012-11.903c0.003-0.8-0.311-1.159-1.131-1.158
			c-9.905,0.01-19.81,0.011-29.714-0.001C9.506,5.045,9.202,5.449,9.203,6.218c0.003,3.968-0.006,7.935,0.007,11.903
			c0.003,0.902,0.299,1.157,1.226,1.185c0.347,0.01,0.73-0.076,1.031,0.045c0.264,0.107,0.6,0.439,0.603,0.676
			c0.003,0.239-0.343,0.663-0.573,0.69c-0.682,0.079-1.398,0.088-2.072-0.034c-0.962-0.174-1.665-1.06-1.669-2.067
			c-0.019-4.315-0.018-8.63,0.004-12.945C7.765,4.529,8.566,3.957,9.501,3.53c10.132,0,20.265,0.002,30.397,0
			c1.668,0,2.804,1.503,2.804,3.112c0,1.373,0,2.746,0,4.12s0,2.746,0,4.12c0,0.712,0,1.424,0,2.136c0,0.531,0.192,1.496,0,1.984
			c-0.523,1.328-1.492,1.905-2.913,1.77c-0.459-0.044-0.934,0.048-1.387-0.019c-1.922-0.283-3.502,0.214-4.633,1.879
			c-0.191,0.282-0.5,0.482-0.729,0.742c-0.55,0.625-1.055,0.561-1.604-0.021c-0.695-0.736-1.421-1.444-2.147-2.15
			c-0.178-0.173-0.409-0.411-0.619-0.415c-1.695-0.034-3.391-0.019-5.01-0.019c-0.398,1.382-0.762,2.649-1.156,4.016
			c0.383,0,0.696,0,1.009,0c1.592-0.001,3.184-0.021,4.776,0.001c1.623,0.022,2.724,0.83,2.969,2.244
			c0.108,0.627,0.018,1.288,0.018,2.036c2.333,1.41,2.368,3.183-0.056,5.36c0.652,1.852,0.273,2.845-1.545,4.047
			c0.539,2.231,0.118,3.145-1.921,4.171c-3.998,0-7.996,0-11.994,0c-0.98-0.288-1.956-0.586-2.941-0.853
			c-0.157-0.043-0.376,0.011-0.525,0.093c-0.42,0.233-0.819,0.504-1.227,0.759c-1.912,0-3.824,0-5.736,0
			c-0.854-0.305-1.436-0.882-1.738-1.738C3.591,36.094,3.591,31.285,3.591,26.476z M19.559,17.999
			c-0.295,0.815-0.622,1.557-0.833,2.33c-0.806,2.961-2.448,5.209-5.345,6.413c-0.48,0.2-0.583,0.528-0.58,1.014
			c0.018,3.358,0.01,6.716,0.009,10.074c0,2.582,0.27,2.886,2.881,3.218c0.258,0.033,0.52,0.052,0.779,0.053
			c3.503,0.008,7.005,0.019,10.508,0.011c0.87-0.002,1.457-0.549,1.453-1.274c-0.004-0.732-0.577-1.261-1.456-1.292
			c-0.752-0.027-1.505-0.002-2.258-0.011c-0.485-0.006-0.979-0.057-0.996-0.696c-0.018-0.668,0.444-0.788,0.996-0.785
			c1.245,0.007,2.49,0.011,3.734-0.002c0.952-0.01,1.535-0.5,1.551-1.269c0.017-0.813-0.566-1.302-1.585-1.307
			c-1.274-0.007-2.548,0.017-3.821-0.009c-0.712-0.014-1.147-0.567-0.806-1.052c0.186-0.264,0.667-0.436,1.021-0.445
			c1.736-0.045,3.473-0.028,5.21-0.018c0.644,0.004,1.134-0.22,1.374-0.84c0.338-0.871-0.285-1.697-1.346-1.716
			c-1.794-0.032-3.589-0.007-5.384-0.019c-0.492-0.003-0.964-0.111-0.951-0.747c0.012-0.607,0.427-0.748,0.952-0.744
			c1.158,0.01,2.316,0.011,3.474,0.007c1.091-0.004,1.697-0.475,1.695-1.299c-0.002-0.833-0.591-1.281-1.697-1.283
			c-2.142-0.003-4.284,0.006-6.427-0.004c-0.983-0.004-1.25-0.382-0.943-1.298c0.339-1.013,0.708-2.017,1.023-3.038
			C22.39,20.039,21.622,18.641,19.559,17.999z M8.975,26.36c0,2.911,0.002,5.771-0.003,8.63c-0.001,0.316,0.046,0.678-0.089,0.935
			c-0.121,0.23-0.453,0.457-0.708,0.476c-0.203,0.015-0.511-0.241-0.625-0.455c-0.125-0.235-0.107-0.56-0.108-0.845
			c-0.007-2.46-0.004-4.921-0.004-7.381c0-0.451,0-0.902,0-1.405c-0.52,0-0.922,0.02-1.321-0.004
			c-0.698-0.042-1.006,0.263-1.004,0.966c0.008,4.284,0.008,8.568-0.004,12.852c-0.002,0.694,0.284,1.005,0.985,0.995
			c1.302-0.019,2.605-0.002,3.908-0.005c1.221-0.002,1.334-0.112,1.334-1.342c0-3.792-0.003-7.584-0.008-11.376
			C11.325,26.189,11.322,26.189,8.975,26.36z"/>
		<path class="st2" d="M12.791,14.364c0.484-0.907-0.116-1.545-0.795-2.251c-0.708-0.736-0.316-1.83,0.698-1.956
			c0.939-0.117,1.533-0.443,1.941-1.361c0.481-1.08,1.715-1.075,2.198,0.006c0.393,0.878,0.944,1.236,1.858,1.354
			c0.375,0.048,0.9,0.444,0.991,0.78c0.104,0.387-0.057,1.041-0.35,1.301c-0.69,0.614-0.903,1.212-0.677,2.121
			c0.093,0.373-0.165,1.025-0.479,1.253c-0.311,0.225-1.005,0.257-1.334,0.054c-0.795-0.489-1.424-0.436-2.215,0.013
			C13.617,16.252,12.75,15.648,12.791,14.364z M14.235,14.28c1.057-0.805,1.912-0.827,2.852-0.222
			c-0.43-1.095,0.033-1.824,0.943-2.585C16.759,11.527,16.103,11,15.72,9.757c-0.342,1.298-1.059,1.732-2.294,1.757
			C14.462,12.255,14.732,13.05,14.235,14.28z"/>
		<path class="st2" d="M22.514,14.364c0.45-0.885-0.09-1.532-0.785-2.238c-0.754-0.766-0.342-1.874,0.738-1.976
			c0.988-0.093,1.501-0.517,1.9-1.405c0.454-1.009,1.693-0.999,2.161,0.015c0.406,0.882,0.935,1.297,1.915,1.392
			c1.1,0.107,1.486,1.285,0.663,2.038c-0.726,0.664-0.924,1.307-0.718,2.266c0.228,1.063-0.802,1.793-1.765,1.243
			c-0.852-0.486-1.517-0.469-2.363,0.017C23.32,16.256,22.478,15.615,22.514,14.364z M26.745,14.014
			c-0.271-1.027,0.014-1.808,1.04-2.546c-1.333,0.064-1.965-0.491-2.359-1.741c-0.297,1.356-1.083,1.729-2.298,1.805
			c1.056,0.713,1.302,1.512,0.995,2.573C25.01,13.414,25.842,13.482,26.745,14.014z"/>
		<path class="st2" d="M32.225,14.36c0.365-0.828,0.022-1.494-0.735-2.178c-0.82-0.741-0.395-1.899,0.715-2.039
			c0.908-0.115,1.511-0.418,1.867-1.33c0.137-0.35,0.738-0.722,1.121-0.715c0.38,0.007,0.936,0.397,1.092,0.759
			c0.368,0.851,0.933,1.172,1.813,1.297c0.396,0.056,0.905,0.469,1.044,0.839c0.123,0.328-0.063,0.979-0.343,1.213
			c-0.769,0.645-0.901,1.325-0.683,2.273c0.231,1.005-0.787,1.759-1.705,1.25c-0.868-0.482-1.556-0.527-2.443-0.015
			C33.027,16.256,32.17,15.593,32.225,14.36z M33.025,11.594c1.029,0.625,1.011,1.511,0.842,2.221c0.879,0,1.716,0,2.416,0
			c0.223-0.69,0.483-1.493,0.749-2.313c-0.815,0.005-1.521-0.499-1.878-1.711C34.81,11.014,34.133,11.508,33.025,11.594z"/>
	</g>
</g>
</svg>
