<?xml version="1.0" encoding="utf-8"?>
<!-- Generator: Adobe Illustrator 22.0.0, SVG Export Plug-In . SVG Version: 6.00 Build 0)  -->
<svg version="1.1" id="Layer_1" xmlns="http://www.w3.org/2000/svg" xmlns:xlink="http://www.w3.org/1999/xlink" x="0px" y="0px"
	 width="38.149px" height="38.15px" viewBox="0 0 38.149 38.15" style="enable-background:new 0 0 38.149 38.15;"
	 xml:space="preserve">
<style type="text/css">
	.st0{fill:#FFFFFF;stroke:#FFD800;stroke-width:3;stroke-miterlimit:10;}
	.st1{fill:#FFFFFF;}
	.st2{fill:#FFD800;}
	.st3{fill:#999999;}
	.st4{fill:none;}
	.st5{fill:none;stroke:#FFD800;stroke-width:2;stroke-miterlimit:10;}
	.st6{fill:none;stroke:#000000;stroke-width:2;stroke-miterlimit:10;}
	.st7{fill:none;stroke:#808080;stroke-miterlimit:10;}
	.st8{fill:none;stroke:#FFD800;stroke-width:3;stroke-miterlimit:10;}
	.st9{opacity:0.43;}
	.st10{opacity:0.5;}
</style>
<g>
	<path class="st1" d="M33.85,27.928c0.013,1.84-2.502,4.488-4.152,4.452c-0.591-0.013-1.211-0.292-1.749-0.578
		c-0.502-0.266-0.955-0.661-1.354-1.073c-0.574-0.593-1.11-0.661-1.847-0.258c-0.426,0.233-0.646,0.448-0.674,0.921
		c-0.04,0.681-0.118,1.361-0.186,2.04c-0.161,1.594-1.276,2.613-2.885,2.635c-0.631,0.009-1.262,0.011-1.892-0.001
		c-1.518-0.03-2.629-1.036-2.805-2.548c-0.085-0.73-0.188-1.463-0.195-2.195c-0.009-0.86-0.75-0.803-1.219-1.103
		c-0.416-0.267-0.664-0.024-0.953,0.222c-0.519,0.443-1.051,0.872-1.591,1.29c-1.219,0.944-2.592,0.898-3.719-0.138
		c-0.541-0.498-1.066-1.016-1.565-1.557c-0.972-1.054-1.044-2.438-0.192-3.598c0.435-0.592,0.938-1.136,1.355-1.741
		c0.145-0.211,0.263-0.639,0.151-0.791c-0.324-0.44-0.182-1.247-1.055-1.286c-0.941-0.042-1.89-0.129-2.812-0.312
		c-1.576-0.313-2.418-1.413-2.424-3.015c-0.002-0.473-0.002-0.946,0-1.419c0.007-1.561,1.006-2.754,2.563-2.989
		c0.96-0.145,1.936-0.182,2.895-0.33c0.241-0.037,0.58-0.276,0.64-0.488c0.133-0.474,0.742-0.899,0.184-1.494
		c-0.502-0.535-0.949-1.124-1.397-1.707C6.028,9.645,6.09,8.287,7.143,7.155C7.573,6.693,8.023,6.25,8.481,5.816
		c1.266-1.197,2.6-1.259,3.956-0.185c0.515,0.408,1.029,0.82,1.51,1.265c0.322,0.298,0.597,0.305,1.037,0.222
		c0.972-0.183,1.177-0.766,1.172-1.614c-0.003-0.495,0.084-0.994,0.168-1.485c0.187-1.083,1.006-1.823,2.21-1.897
		c1.021-0.063,2.052-0.062,3.073-0.003c1.366,0.08,2.135,0.881,2.288,2.25c0.038,0.339,0.101,0.676,0.136,1.015
		c0.135,1.297,0.142,1.326,1.419,1.684c0.181,0.051,0.457-0.03,0.616-0.148c0.569-0.423,1.101-0.894,1.656-1.336
		c1.327-1.054,2.684-1.003,3.892,0.156c0.512,0.491,1.019,0.99,1.489,1.52c0.894,1.007,0.965,2.314,0.164,3.4
		c-0.482,0.654-1.001,1.291-1.572,1.868c-0.602,0.61-0.044,1.127,0.074,1.659c0.041,0.183,0.432,0.354,0.689,0.408
		c0.563,0.118,1.145,0.146,1.716,0.234c1.154,0.178,1.751,0.73,1.827,1.909c0.081,1.256,0.083,2.525-0.001,3.78
		c-0.079,1.172-0.68,1.722-1.838,1.918c-0.439,0.074-0.885,0.169-1.326,0.162c-0.545-0.008-0.711,0.288-0.952,0.719
		c-0.409,0.732-0.227,1.219,0.277,1.794c0.566,0.646,1.049,1.371,1.513,2.096C33.833,27.457,33.824,27.811,33.85,27.928z
		 M14.207,28.079c0.213,0.031,0.326,0.026,0.42,0.065c0.724,0.304,1.431,0.658,2.171,0.915c0.633,0.22,0.929,0.596,0.973,1.262
		c0.065,0.995,0.191,1.986,0.288,2.978c0.092,0.941,0.481,1.309,1.398,1.313c0.394,0.002,0.789,0.001,1.183,0
		c1.033-0.002,1.398-0.343,1.494-1.38c0.096-1.046,0.22-2.09,0.293-3.138c0.039-0.557,0.32-0.839,0.818-1.02
		c0.664-0.241,1.328-0.495,1.961-0.807c0.545-0.269,0.987-0.221,1.444,0.169c0.719,0.614,1.47,1.192,2.191,1.804
		c0.558,0.474,1.067,0.482,1.582-0.06c0.398-0.419,0.808-0.828,1.227-1.226c0.544-0.515,0.54-1.017,0.057-1.581
		c-0.632-0.738-1.221-1.514-1.848-2.257c-0.369-0.437-0.399-0.864-0.155-1.378c0.291-0.614,0.599-1.241,0.748-1.897
		c0.145-0.638,0.483-0.878,1.071-0.933c0.836-0.078,1.67-0.177,2.506-0.259c0.4-0.039,0.605-0.197,0.59-0.648
		c-0.03-0.919-0.025-1.84-0.002-2.76c0.011-0.435-0.159-0.609-0.583-0.648c-0.758-0.07-1.51-0.212-2.269-0.262
		c-0.664-0.043-1.057-0.33-1.267-0.967c-0.204-0.62-0.451-1.232-0.745-1.815c-0.285-0.567-0.248-1.029,0.171-1.512
		c0.637-0.734,1.235-1.501,1.852-2.253c0.423-0.515,0.392-0.998-0.085-1.463c-0.433-0.422-0.86-0.85-1.284-1.281
		c-0.492-0.5-0.988-0.513-1.528-0.062c-0.766,0.64-1.516,1.309-2.34,1.866c-0.307,0.208-0.838,0.266-1.204,0.165
		c-0.752-0.208-1.488-0.52-2.177-0.891c-0.309-0.166-0.632-0.547-0.697-0.88c-0.181-0.924-0.242-1.873-0.328-2.815
		c-0.052-0.566-0.337-0.874-0.901-0.885c-0.762-0.015-1.525-0.017-2.286,0.001c-0.556,0.014-0.847,0.305-0.894,0.884
		c-0.072,0.889-0.209,1.773-0.282,2.662c-0.047,0.57-0.307,0.897-0.854,1.083c-0.668,0.228-1.323,0.504-1.956,0.816
		c-0.515,0.253-0.936,0.219-1.373-0.15c-0.763-0.644-1.549-1.26-2.322-1.891c-0.514-0.42-1-0.398-1.468,0.073
		c-0.426,0.429-0.85,0.86-1.284,1.281C8.009,8.789,7.978,9.285,8.429,9.827c0.605,0.727,1.182,1.478,1.799,2.194
		c0.412,0.478,0.49,0.932,0.177,1.504c-0.3,0.549-0.554,1.133-0.755,1.726c-0.247,0.728-0.734,1.027-1.471,1.07
		c-0.865,0.051-1.729,0.131-2.59,0.233c-1.992,0.235-2.065,0.327-2.065,2.329c0,1.259,0.241,1.57,1.499,1.728
		c1.171,0.147,2.351,0.234,3.528,0.328c0.602,0.048,0.937,0.349,1.124,0.921c0.203,0.621,0.451,1.233,0.747,1.814
		c0.285,0.562,0.271,1.02-0.155,1.509c-0.638,0.732-1.222,1.512-1.845,2.258c-0.43,0.516-0.416,0.989,0.062,1.458
		c0.431,0.424,0.866,0.845,1.282,1.283c0.516,0.544,1.024,0.533,1.583,0.06c0.722-0.611,1.457-1.207,2.201-1.791
		C13.768,28.283,14.035,28.175,14.207,28.079z"/>
	<path class="st1" d="M13.762,18.635c-0.004-3.539,2.82-6.38,6.336-6.373c3.516,0.007,6.341,2.854,6.334,6.385
		c-0.007,3.486-2.826,6.316-6.308,6.331C16.598,24.994,13.766,22.171,13.762,18.635z M24.654,18.663
		c0.015-2.519-2.009-4.572-4.522-4.586c-2.532-0.014-4.582,1.99-4.605,4.502c-0.022,2.49,2.016,4.569,4.522,4.614
		C22.51,23.237,24.639,21.143,24.654,18.663z"/>
</g>
</svg>
