<?xml version="1.0" encoding="utf-8"?>
<!-- Generator: Adobe Illustrator 22.0.0, SVG Export Plug-In . SVG Version: 6.00 Build 0)  -->
<svg version="1.1" id="Layer_1" xmlns="http://www.w3.org/2000/svg" xmlns:xlink="http://www.w3.org/1999/xlink" x="0px" y="0px"
	 width="46.378px" height="46.172px" viewBox="0 0 46.378 46.172" style="enable-background:new 0 0 46.378 46.172;"
	 xml:space="preserve">
<style type="text/css">
	.st0{fill:#FFFFFF;stroke:#FFD800;stroke-width:3;stroke-miterlimit:10;}
	.st1{fill:#FFFFFF;}
	.st2{fill:#FFD800;}
	.st3{fill:#999999;}
	.st4{fill:none;}
	.st5{fill:none;stroke:#FFD800;stroke-width:2;stroke-miterlimit:10;}
	.st6{fill:none;stroke:#000000;stroke-width:2;stroke-miterlimit:10;}
	.st7{fill:none;stroke:#808080;stroke-miterlimit:10;}
	.st8{fill:none;stroke:#FFD800;stroke-width:3;stroke-miterlimit:10;}
	.st9{opacity:0.43;}
	.st10{opacity:0.5;}
</style>
<g>
	<path class="st2" d="M29.868,30.028c3.194-3.146,6.596-3.683,9.574-1.555c2.624,1.874,3.595,5.423,2.268,8.287
		c-1.431,3.088-4.762,4.71-7.943,3.855c-2.688-0.722-5.635-3.267-4.999-8.1c-4.081-1.814-8.193-3.641-12.286-5.46
		c-3.406,4.118-8.212,3.14-10.443,0.806c-2.668-2.79-2.617-7.041,0.176-9.729c2.438-2.345,7.073-2.905,10.229,0.962
		c3.941-1.78,7.907-3.557,11.848-5.389c0.239-0.111,0.402-0.665,0.386-1.003c-0.125-2.727,0.93-4.849,3.209-6.328
		c2.386-1.548,5.57-1.349,7.792,0.428c2.333,1.865,3.206,4.893,2.212,7.668c-0.96,2.68-3.564,4.483-6.408,4.482
		c-2.348-0.001-4.146-1.05-5.638-2.922c-2.038,0.913-4.086,1.826-6.131,2.748c-2.027,0.914-4.049,1.836-6.083,2.758
		c0,0.889-0.02,1.757,0.015,2.623c0.008,0.2,0.158,0.498,0.323,0.572C21.937,26.515,25.916,28.275,29.868,30.028z M6.781,22.996
		c-0.014,2.348,1.825,4.222,4.14,4.216c2.21-0.005,4.062-1.869,4.065-4.092c0.003-2.302-1.807-4.144-4.087-4.159
		C8.682,18.948,6.795,20.797,6.781,22.996z M39.578,34.051c0.032-2.245-1.743-4.085-3.993-4.141
		c-2.341-0.058-4.195,1.753-4.209,4.11c-0.013,2.225,1.825,4.098,4.034,4.11C37.704,38.142,39.546,36.34,39.578,34.051z
		 M35.524,8.05c-2.358,0.001-4.174,1.83-4.15,4.179c0.024,2.247,1.858,4.049,4.1,4.027c2.316-0.022,4.099-1.814,4.106-4.125
		C39.586,9.913,37.733,8.049,35.524,8.05z"/>
</g>
</svg>
