<?xml version="1.0" encoding="utf-8"?>
<!-- Generator: Adobe Illustrator 22.0.0, SVG Export Plug-In . SVG Version: 6.00 Build 0)  -->
<svg version="1.1" id="Layer_1" xmlns="http://www.w3.org/2000/svg" xmlns:xlink="http://www.w3.org/1999/xlink" x="0px" y="0px"
	 width="45.251px" height="45.251px" viewBox="0 0 45.251 45.251" style="enable-background:new 0 0 45.251 45.251;"
	 xml:space="preserve">
<style type="text/css">
	.st0{fill:#FFFFFF;stroke:#FFD800;stroke-width:3;stroke-miterlimit:10;}
	.st1{fill:#FFFFFF;}
	.st2{fill:#FFD800;}
	.st3{fill:#999999;}
	.st4{fill:none;}
	.st5{fill:none;stroke:#FFD800;stroke-width:2;stroke-miterlimit:10;}
	.st6{fill:none;stroke:#000000;stroke-width:2;stroke-miterlimit:10;}
	.st7{fill:none;stroke:#808080;stroke-miterlimit:10;}
	.st8{fill:none;stroke:#FFD800;stroke-width:3;stroke-miterlimit:10;}
	.st9{opacity:0.43;}
	.st10{opacity:0.5;}
</style>
<circle class="st1" cx="22.625" cy="22.625" r="21.424"/>
<g>
	<path d="M27.375,27.563c2.272-2.238,4.691-2.619,6.809-1.106c1.866,1.333,2.557,3.857,1.613,5.894
		c-1.018,2.196-3.387,3.35-5.65,2.742c-1.912-0.514-4.007-2.324-3.556-5.761c-2.903-1.29-5.827-2.59-8.738-3.883
		c-2.422,2.929-5.84,2.233-7.428,0.573c-1.897-1.985-1.861-5.008,0.125-6.919c1.734-1.668,5.03-2.066,7.275,0.684
		c2.803-1.266,5.624-2.53,8.427-3.833c0.17-0.079,0.286-0.473,0.275-0.713c-0.089-1.94,0.661-3.449,2.282-4.5
		c1.697-1.101,3.961-0.959,5.542,0.305c1.659,1.326,2.28,3.48,1.573,5.454c-0.683,1.906-2.535,3.189-4.557,3.188
		c-1.67-0.001-2.949-0.747-4.01-2.078c-1.449,0.649-2.906,1.299-4.36,1.954c-1.441,0.65-2.88,1.306-4.326,1.962
		c0,0.633-0.014,1.25,0.011,1.865c0.006,0.142,0.112,0.354,0.23,0.407C21.735,25.065,24.565,26.316,27.375,27.563z M10.956,22.562
		c-0.01,1.67,1.298,3.003,2.945,2.999c1.572-0.004,2.889-1.33,2.891-2.91c0.002-1.637-1.286-2.948-2.907-2.958
		C12.308,19.682,10.965,20.998,10.956,22.562z M34.282,30.424c0.022-1.597-1.24-2.906-2.84-2.945
		c-1.665-0.041-2.984,1.247-2.994,2.923c-0.009,1.582,1.298,2.915,2.869,2.923C32.949,33.334,34.259,32.052,34.282,30.424z
		 M31.398,11.931c-1.677,0.001-2.969,1.302-2.951,2.972c0.017,1.598,1.321,2.88,2.916,2.864c1.647-0.016,2.916-1.29,2.92-2.934
		C34.288,13.256,32.97,11.93,31.398,11.931z"/>
</g>
</svg>
