<?xml version="1.0" encoding="utf-8"?>
<!-- Generator: Adobe Illustrator 22.0.0, SVG Export Plug-In . SVG Version: 6.00 Build 0)  -->
<svg version="1.1" id="Layer_1" xmlns="http://www.w3.org/2000/svg" xmlns:xlink="http://www.w3.org/1999/xlink" x="0px" y="0px"
	 width="46.378px" height="46.172px" viewBox="0 0 46.378 46.172" style="enable-background:new 0 0 46.378 46.172;"
	 xml:space="preserve">
<style type="text/css">
	.st0{fill:#FFFFFF;stroke:#FFD800;stroke-width:3;stroke-miterlimit:10;}
	.st1{fill:#FFFFFF;}
	.st2{fill:#FFD800;}
	.st3{fill:#999999;}
	.st4{fill:none;}
	.st5{fill:none;stroke:#FFD800;stroke-width:2;stroke-miterlimit:10;}
	.st6{fill:none;stroke:#000000;stroke-width:2;stroke-miterlimit:10;}
	.st7{fill:none;stroke:#808080;stroke-miterlimit:10;}
	.st8{fill:none;stroke:#FFD800;stroke-width:3;stroke-miterlimit:10;}
	.st9{opacity:0.43;}
	.st10{opacity:0.5;}
</style>
<g>
	<path class="st2" d="M17.649,17.674c0,3.851,0,7.647,0,11.475c-0.722,0-1.423,0-2.164,0c0-3.065,0-6.12,0-9.251
		c-0.204,0-0.369,0-0.534,0c-1.231,0-2.462,0.005-3.693-0.002c-1.395-0.008-2.485-0.735-2.999-1.988
		c-0.482-1.174-0.179-2.448,0.801-3.419c3.946-3.91,7.888-7.824,11.835-11.734c1.102-1.092,2.559-1.342,3.803-0.646
		c0.272,0.152,0.531,0.348,0.751,0.568c3.978,3.968,7.954,7.937,11.92,11.917c1.619,1.625,1.157,4.19-0.911,5.051
		c-0.382,0.159-0.823,0.231-1.24,0.242c-1.23,0.031-2.462,0.012-3.693,0.012c-0.169,0-0.338,0-0.557,0c0,0.662,0,1.273,0,1.885
		c0.002,3.062,0.004,6.124,0.005,9.185c0,1.83-0.906,2.744-2.729,2.745c-4.072,0.003-8.144,0.001-12.215,0.001
		c-0.17,0-0.339,0-0.537,0c0-0.757,0-1.461,0-2.218c4.427,0,8.853,0,13.339,0c0-4.619,0-9.186,0-13.793
		c0.211-0.013,0.363-0.03,0.516-0.03c1.768-0.002,3.535-0.001,5.303-0.001c0.189,0,0.379-0.001,0.568-0.001
		c0.421,0,0.738-0.185,0.902-0.568c0.166-0.387-0.004-0.699-0.281-0.976c-1.463-1.461-2.921-2.926-4.383-4.387
		c-2.466-2.466-4.934-4.932-7.402-7.396c-0.639-0.637-1.154-0.636-1.785,0.005c-3.852,3.915-7.7,7.833-11.555,11.745
		c-0.271,0.275-0.513,0.563-0.346,0.952c0.181,0.42,0.528,0.633,1.015,0.631c1.894-0.011,3.788-0.004,5.681-0.004
		C17.249,17.674,17.435,17.674,17.649,17.674z"/>
	<path class="st2" d="M17.649,17.674h-0.142c0,3.851,0,7.647,0,11.475h0.142v-0.142c-0.722,0-1.423,0-2.164,0v0.142h0.142
		c0-3.065,0-6.12,0-9.251c0-0.038-0.015-0.074-0.042-0.1c-0.027-0.027-0.063-0.042-0.1-0.042c-0.204,0-0.369,0-0.534,0
		c-0.011,0-0.022,0-0.032,0c-0.734,0-1.468,0.002-2.202,0.002c-0.486,0-0.972-0.001-1.458-0.003
		c-0.673-0.004-1.266-0.18-1.752-0.503c-0.486-0.323-0.868-0.794-1.116-1.397c-0.144-0.352-0.215-0.711-0.215-1.068
		c0-0.78,0.335-1.552,0.984-2.196c3.946-3.91,7.888-7.824,11.835-11.734c0.666-0.659,1.456-0.994,2.242-0.994
		c0.473,0,0.945,0.121,1.392,0.371c0.26,0.145,0.509,0.334,0.72,0.544c3.978,3.968,7.954,7.937,11.92,11.917
		c0.635,0.637,0.933,1.419,0.933,2.178c0,0.551-0.158,1.089-0.461,1.551c-0.303,0.461-0.751,0.847-1.338,1.091
		c-0.36,0.15-0.786,0.221-1.189,0.231c-0.549,0.014-1.098,0.018-1.648,0.018c-0.668,0-1.337-0.006-2.006-0.006
		c-0.012,0-0.023,0-0.035,0c-0.056,0-0.113,0-0.171,0c-0.116,0-0.24,0-0.386,0c-0.037,0-0.074,0.015-0.1,0.042
		c-0.026,0.026-0.042,0.063-0.042,0.1c0,0.441,0,0.86,0,1.272c0,0.206,0,0.409,0,0.613c0.002,3.062,0.004,6.124,0.005,9.185
		c0,0.446-0.055,0.831-0.163,1.156c-0.162,0.488-0.436,0.84-0.833,1.081c-0.397,0.24-0.925,0.366-1.591,0.366
		c-1.714,0.001-3.428,0.001-5.142,0.001c-2.262,0-4.523-0.001-6.785-0.001c-0.096,0-0.193,0-0.289,0c-0.17,0-0.339,0-0.537,0v0.142
		h0.142c0-0.757,0-1.461,0-2.218h-0.142v0.142c4.427,0,8.853,0,13.339,0c0.038,0,0.074-0.015,0.1-0.042
		c0.027-0.027,0.042-0.063,0.042-0.1c0-4.619,0-9.186,0-13.793h-0.142l0.008,0.142c0.215-0.013,0.366-0.029,0.507-0.029
		c1.202-0.001,2.404-0.001,3.607-0.001c0.403,0,0.805,0,1.208,0c0.163,0,0.325,0,0.488,0c0.174,0,0.348-0.001,0.521-0.001
		c0.016,0,0.031,0,0.047,0h0c0.231,0,0.443-0.051,0.622-0.162c0.179-0.11,0.319-0.278,0.411-0.493
		c0.052-0.121,0.077-0.241,0.077-0.356c0-0.154-0.045-0.298-0.115-0.426c-0.071-0.129-0.166-0.243-0.273-0.351
		c-1.463-1.461-2.921-2.925-4.383-4.387c-2.467-2.466-4.934-4.932-7.402-7.396c-0.166-0.166-0.327-0.294-0.491-0.382
		c-0.164-0.088-0.332-0.136-0.502-0.136c-0.171,0-0.34,0.048-0.504,0.138c-0.164,0.09-0.325,0.219-0.49,0.387
		c-3.852,3.915-7.7,7.833-11.555,11.745c-0.106,0.108-0.213,0.222-0.297,0.352c-0.084,0.129-0.145,0.279-0.145,0.448
		c0,0.099,0.021,0.204,0.067,0.308l0,0c0.099,0.231,0.25,0.414,0.445,0.536c0.195,0.122,0.43,0.181,0.692,0.18l0.009,0h0.001
		c0.839-0.005,1.679-0.006,2.518-0.006c1.054,0,2.108,0.002,3.162,0.002c0.186,0,0.372,0,0.585,0V17.674h-0.142H17.649v-0.142
		c-0.214,0-0.399,0-0.585,0c-1.054,0-2.108-0.002-3.162-0.002c-0.84,0-1.68,0.001-2.52,0.006h0.001l-0.009,0
		c-0.221,0-0.399-0.048-0.541-0.137c-0.142-0.089-0.254-0.221-0.334-0.408l0,0c-0.031-0.073-0.043-0.136-0.044-0.195
		c0-0.099,0.035-0.193,0.099-0.294c0.064-0.1,0.158-0.202,0.261-0.306c3.855-3.912,7.704-7.83,11.555-11.745
		c0.151-0.154,0.293-0.266,0.423-0.337c0.131-0.071,0.25-0.103,0.367-0.103c0.117,0,0.236,0.032,0.367,0.102
		c0.131,0.07,0.273,0.181,0.425,0.333c2.469,2.464,4.936,4.929,7.402,7.395c1.462,1.462,2.92,2.927,4.383,4.387
		c0.095,0.095,0.173,0.191,0.225,0.286c0.052,0.096,0.08,0.19,0.08,0.289c0,0.075-0.016,0.154-0.054,0.244
		c-0.073,0.169-0.173,0.285-0.299,0.363c-0.126,0.078-0.283,0.119-0.472,0.119h0c-0.016,0-0.032,0-0.047,0
		c-0.174,0-0.348,0.001-0.521,0.001c-0.163,0-0.325,0-0.488,0c-0.403,0-0.805,0-1.208,0c-1.202,0-2.405,0-3.607,0.001
		c-0.163,0-0.317,0.018-0.524,0.03c-0.075,0.004-0.134,0.067-0.134,0.142c0,4.607,0,9.173,0,13.793h0.142v-0.142
		c-4.486,0-8.912,0-13.339,0c-0.037,0-0.074,0.015-0.1,0.042c-0.026,0.026-0.042,0.063-0.042,0.1c0,0.758,0,1.461,0,2.218
		c0,0.037,0.015,0.074,0.042,0.1c0.026,0.026,0.063,0.042,0.1,0.042c0.198,0,0.367,0,0.537,0c0.096,0,0.193,0,0.289,0
		c2.262,0,4.523,0.001,6.785,0.001c1.714,0,3.428,0,5.142-0.001c0.467,0,0.881-0.059,1.24-0.179c0.539-0.18,0.956-0.504,1.228-0.963
		c0.273-0.458,0.403-1.042,0.403-1.745c0-3.062-0.003-6.124-0.005-9.185c0-0.204,0-0.407,0-0.613c0-0.411,0-0.83,0-1.272h-0.142
		v0.142c0.146,0,0.27,0,0.386,0c0.058,0,0.115,0,0.171,0c0.012,0,0.023,0,0.035,0c0.668,0,1.337,0.006,2.006,0.006
		c0.551,0,1.103-0.004,1.655-0.018c0.43-0.011,0.887-0.085,1.291-0.252c0.638-0.265,1.132-0.689,1.466-1.197
		c0.334-0.509,0.507-1.102,0.507-1.707c0-0.834-0.33-1.69-1.016-2.379c-3.966-3.98-7.942-7.95-11.92-11.918
		c-0.23-0.229-0.499-0.432-0.782-0.591c-0.487-0.273-1.01-0.407-1.531-0.407c-0.868,0-1.731,0.372-2.442,1.076
		c-3.946,3.91-7.889,7.824-11.835,11.734c-0.696,0.689-1.069,1.535-1.069,2.398c0,0.394,0.078,0.791,0.236,1.176
		c0.266,0.65,0.686,1.17,1.222,1.525c0.536,0.356,1.186,0.547,1.908,0.551c0.486,0.003,0.973,0.003,1.459,0.003
		c0.734,0,1.468-0.002,2.202-0.002c0.011,0,0.022,0,0.032,0c0.165,0,0.33,0,0.534,0v-0.142h-0.142c0,3.131,0,6.185,0,9.251
		c0,0.037,0.015,0.074,0.042,0.1c0.026,0.026,0.063,0.042,0.1,0.042c0.741,0,1.442,0,2.164,0c0.038,0,0.074-0.015,0.1-0.042
		s0.042-0.063,0.042-0.1c0-3.828,0-7.625,0-11.475c0-0.038-0.015-0.074-0.042-0.1c-0.027-0.027-0.063-0.042-0.1-0.042V17.674z"/>
	<path class="st2" d="M23.371,39.61c-2.271,0-4.541,0-6.812,0c-0.87,0-1.399-0.469-1.403-1.244c-0.004-0.8,0.49-1.294,1.356-1.295
		c4.588-0.007,9.177-0.007,13.765,0.001c0.819,0.001,1.324,0.522,1.308,1.292c-0.015,0.774-0.516,1.243-1.357,1.245
		C27.944,39.614,25.658,39.611,23.371,39.61z"/>
	<path class="st2" d="M23.371,39.61v-0.142c-2.271,0-4.541,0-6.812,0c-0.41,0-0.723-0.11-0.932-0.296
		c-0.105-0.093-0.185-0.206-0.241-0.34c-0.056-0.134-0.087-0.29-0.087-0.467v-0.001l0-0.007c0-0.184,0.029-0.346,0.081-0.486
		c0.08-0.209,0.211-0.368,0.398-0.481c0.186-0.112,0.432-0.177,0.735-0.178c2.193-0.003,4.385-0.005,6.578-0.005
		c2.396,0,4.791,0.002,7.187,0.006c0.375,0.001,0.662,0.117,0.858,0.308c0.196,0.191,0.308,0.464,0.309,0.809c0,0.01,0,0.02,0,0.033
		l0.142,0.001l-0.142-0.003c-0.004,0.178-0.035,0.335-0.09,0.47c-0.083,0.202-0.216,0.356-0.402,0.465
		c-0.186,0.108-0.428,0.171-0.723,0.172c-0.963,0.002-1.926,0.003-2.89,0.003c-1.323,0-2.646-0.001-3.969-0.001V39.61l0,0.142
		c1.323,0,2.646,0.001,3.969,0.001c0.963,0,1.927-0.001,2.89-0.003c0.446-0.001,0.82-0.127,1.084-0.371
		c0.132-0.121,0.234-0.271,0.304-0.442c0.07-0.171,0.107-0.363,0.111-0.572v-0.002c0-0.011,0-0.022,0-0.035
		c0.001-0.407-0.138-0.763-0.395-1.013c-0.256-0.25-0.623-0.388-1.056-0.388c-2.396-0.004-4.792-0.006-7.188-0.006
		c-2.193,0-4.386,0.002-6.578,0.005c-0.229,0-0.438,0.033-0.623,0.098c-0.277,0.096-0.501,0.267-0.651,0.497
		c-0.15,0.23-0.225,0.514-0.225,0.833l0,0.011l0.142-0.002l-0.142,0.001c0.001,0.21,0.038,0.403,0.109,0.575
		c0.107,0.258,0.294,0.466,0.541,0.603c0.246,0.138,0.549,0.207,0.895,0.207c2.271,0,4.541,0,6.812,0L23.371,39.61z"/>
	<path class="st2" d="M23.291,44.45c-1.671,0-3.342,0.002-5.014-0.001c-0.735-0.001-1.115-0.36-1.116-1.039
		c-0.001-0.65,0.426-1.061,1.115-1.061c3.374-0.002,6.748,0.003,10.122-0.004c0.51-0.001,0.84,0.226,1.016,0.687
		c0.171,0.448,0.062,0.863-0.292,1.155c-0.187,0.154-0.478,0.249-0.724,0.252C26.697,44.46,24.994,44.45,23.291,44.45z"/>
	<path class="st2" d="M23.291,44.45v-0.142c-0.955,0-1.91,0.001-2.865,0.001c-0.716,0-1.432,0-2.148-0.002
		c-0.172,0-0.32-0.022-0.441-0.061c-0.183-0.059-0.308-0.153-0.396-0.287c-0.087-0.134-0.136-0.314-0.137-0.55l0-0.006l-0.01,0
		l0.01,0v0l-0.01,0l0.01,0l-0.1,0.004h0.1l0-0.004l-0.1,0.004h0.1c0.001-0.294,0.094-0.515,0.255-0.669
		c0.162-0.154,0.401-0.246,0.718-0.247c0.656,0,1.311,0,1.967,0c1.062,0,2.123,0,3.185,0c1.657,0,3.314-0.001,4.97-0.004H28.4
		l0.002,0c0.233,0,0.411,0.051,0.551,0.146c0.14,0.095,0.248,0.239,0.329,0.449c0.048,0.125,0.07,0.244,0.07,0.356
		c0,0.123-0.027,0.237-0.079,0.344c-0.053,0.106-0.132,0.206-0.24,0.295c-0.076,0.063-0.182,0.119-0.295,0.158
		c-0.113,0.039-0.235,0.061-0.34,0.062c-0.871,0.011-1.743,0.013-2.615,0.013c-0.83,0-1.661-0.002-2.491-0.002V44.45l0,0.142
		c0.83,0,1.661,0.002,2.491,0.002c0.873,0,1.746-0.003,2.619-0.013c0.14-0.002,0.288-0.029,0.428-0.077
		c0.14-0.048,0.274-0.117,0.384-0.207c0.136-0.112,0.242-0.243,0.314-0.388c0.072-0.145,0.109-0.305,0.109-0.47
		c0-0.15-0.03-0.303-0.089-0.457c-0.095-0.25-0.239-0.45-0.435-0.583c-0.196-0.133-0.436-0.196-0.711-0.195l-0.005,0h0.001
		c-1.657,0.003-3.313,0.004-4.97,0.004c-1.062,0-2.123,0-3.185,0c-0.656,0-1.311,0-1.967,0c-0.372,0-0.69,0.112-0.914,0.325
		c-0.224,0.213-0.344,0.52-0.344,0.875l0,0.01l0.142-0.007l-0.142,0c0,0.183,0.026,0.349,0.08,0.497
		c0.08,0.222,0.229,0.401,0.432,0.515c0.203,0.115,0.453,0.168,0.746,0.169c0.716,0.001,1.433,0.002,2.149,0.002
		c0.955,0,1.91-0.001,2.865-0.001V44.45z"/>
</g>
</svg>
