<?xml version="1.0" encoding="utf-8"?>
<!-- Generator: Adobe Illustrator 22.0.0, SVG Export Plug-In . SVG Version: 6.00 Build 0)  -->
<svg version="1.1" id="Layer_1" xmlns="http://www.w3.org/2000/svg" xmlns:xlink="http://www.w3.org/1999/xlink" x="0px" y="0px"
	 width="38.149px" height="38.15px" viewBox="0 0 38.149 38.15" style="enable-background:new 0 0 38.149 38.15;"
	 xml:space="preserve">
<style type="text/css">
	.st0{fill:#FFFFFF;stroke:#FFD800;stroke-width:3;stroke-miterlimit:10;}
	.st1{fill:#FFFFFF;}
	.st2{fill:#FFD800;}
	.st3{fill:#999999;}
	.st4{fill:none;}
	.st5{fill:none;stroke:#FFD800;stroke-width:2;stroke-miterlimit:10;}
	.st6{fill:none;stroke:#000000;stroke-width:2;stroke-miterlimit:10;}
	.st7{fill:none;stroke:#808080;stroke-miterlimit:10;}
	.st8{fill:none;stroke:#FFD800;stroke-width:3;stroke-miterlimit:10;}
	.st9{opacity:0.43;}
	.st10{opacity:0.5;}
</style>
<g>
	<g>
		<path class="st1" d="M35.52,9.353c0,6.53,0,13.059,0,19.589c-0.645,1.886-2.012,2.5-3.935,2.489
			c-8.341-0.048-16.683-0.049-25.024,0.001c-1.926,0.011-3.289-0.604-3.932-2.489c0-6.578,0-13.157,0-19.735
			c0.634-1.85,1.961-2.498,3.868-2.488c8.4,0.046,16.801,0.02,25.201,0.02C33.959,6.738,34.723,7.261,35.52,9.353z M4.708,15.958
			c-0.014,0.303-0.032,0.517-0.032,0.732c-0.002,3.751-0.002,7.502-0.001,11.253c0.001,1.098,0.332,1.428,1.44,1.429
			c8.622,0.002,17.245,0.001,25.867,0c1.165,0,1.489-0.318,1.49-1.455c0.002-3.727,0.001-7.453-0.001-11.18
			c0-0.236-0.021-0.473-0.033-0.71c-0.114-0.03-0.182-0.063-0.25-0.063c-2.874-0.004-5.748-0.015-8.622,0.014
			c-0.195,0.002-0.451,0.261-0.567,0.465c-0.334,0.586-0.526,1.266-0.924,1.798c-1.288,1.724-3.138,2.06-5.107,1.747
			c-1.956-0.312-3.18-1.57-3.786-3.434c-0.098-0.301-0.093-0.605-0.556-0.603C10.683,15.966,7.739,15.958,4.708,15.958z
			 M33.473,13.954c0-1.229,0-2.391,0-3.553c-0.001-1.354-0.269-1.625-1.613-1.626c-8.522,0-17.045,0-25.567,0
			c-0.219,0-0.495-0.077-0.646,0.026c-0.353,0.24-0.897,0.549-0.919,0.862c-0.1,1.399-0.043,2.809-0.043,4.291
			c0.354,0,0.639,0,0.925,0c2.971,0,5.941-0.002,8.912,0.001c1.12,0.001,1.234,0.168,1.478,1.248
			c0.15,0.667,0.389,1.384,0.805,1.907c0.864,1.087,2.119,1.12,3.343,0.787c1.322-0.359,1.907-1.424,1.991-2.687
			c0.064-0.961,0.587-1.278,1.476-1.267c2.435,0.031,4.87,0.011,7.305,0.011C31.743,13.954,32.567,13.954,33.473,13.954z"/>
	</g>
</g>
</svg>
