<?xml version="1.0" encoding="utf-8"?>
<!-- Generator: Adobe Illustrator 22.0.0, SVG Export Plug-In . SVG Version: 6.00 Build 0)  -->
<svg version="1.1" id="Layer_1" xmlns="http://www.w3.org/2000/svg" xmlns:xlink="http://www.w3.org/1999/xlink" x="0px" y="0px"
	 width="374.534px" height="154.249px" viewBox="0 0 374.534 154.249" style="enable-background:new 0 0 374.534 154.249;"
	 xml:space="preserve">
<style type="text/css">
	.st0{fill:#FFFFFF;stroke:#FFD800;stroke-width:3;stroke-miterlimit:10;}
	.st1{fill:#FFFFFF;}
	.st2{fill:#FFD800;}
	.st3{fill:#999999;}
	.st4{fill:none;}
	.st5{fill:none;stroke:#FFD800;stroke-width:2;stroke-miterlimit:10;}
	.st6{fill:none;stroke:#000000;stroke-width:2;stroke-miterlimit:10;}
	.st7{fill:none;stroke:#808080;stroke-miterlimit:10;}
	.st8{fill:none;stroke:#FFD800;stroke-width:3;stroke-miterlimit:10;}
	.st9{opacity:0.43;}
	.st10{opacity:0.5;}
</style>
<g>
	<g>
		<g>
			<path class="st1" d="M117.738,105.925c5.708-8.282,8.563-17.819,8.563-28.611c0-13.227-4.63-24.749-13.888-34.564
				c-9.121-9.328-20.015-13.991-32.684-13.991c-13.436,0-24.505,4.664-33.206,13.991c-8.912,8.982-13.365,20.503-13.365,34.564
				c0,15.941,5.534,28.578,16.602,37.906c8.075,6.544,17.16,10.127,27.255,10.754l19.422,24.539
				c-2.577,0.488-5.258,0.834-8.04,1.043c-2.785,0.209-5.675,0.314-8.668,0.314c-21.302,0-39.054-7.311-53.255-21.93
				C12.272,114.907,5.172,97.364,5.172,77.314c0-13.994,3.342-26.663,10.025-38.011c6.821-11.487,15.906-20.57,27.253-27.253
				c11.346-6.614,23.772-9.92,37.278-9.92c20.745,0,38.044,7.311,51.897,21.93c14.619,14.689,21.929,32.44,21.929,53.255
				c0,19.422-6.197,36.27-18.587,50.54L117.738,105.925z"/>
		</g>
		<path class="st2" d="M104.843,89.092H71.733c8.207,10.593,40.858,52.504,49.136,63.027h33.487L104.843,89.092z"/>
	</g>
	<g>
		<g>
			<path class="st1" d="M178.704,152.119c-8.243,0-14.511-4.279-18.804-12.837l9.574-5.71c2.804,5.266,5.982,7.899,9.53,7.899
				c1.861,0,3.492-0.543,4.894-1.632c1.259-1.173,1.889-2.447,1.889-3.821c0-1.345-0.444-2.705-1.331-4.079
				c-0.573-0.658-1.403-1.481-2.49-2.469c-1.088-0.987-2.447-2.168-4.079-3.542c-3.12-2.604-5.703-4.901-7.749-6.89
				c-2.047-1.989-3.542-3.685-4.486-5.087c-2.004-2.862-3.005-5.667-3.005-8.414c0-4.122,1.546-7.656,4.637-10.605
				c3.205-2.919,7.012-4.379,11.42-4.379c3.033,0,5.853,0.73,8.457,2.19c1.345,0.659,2.733,1.603,4.164,2.833
				c1.431,1.231,2.948,2.734,4.551,4.508l-8.457,7.341c-2.834-3.978-5.739-5.967-8.715-5.967c-1.66,0-2.834,0.358-3.521,1.073
				c-0.916,0.716-1.374,1.632-1.374,2.748c0,0.859,0.272,1.746,0.816,2.662c0.543,0.573,1.495,1.467,2.855,2.683
				c1.359,1.217,3.141,2.784,5.345,4.701c2.576,2.147,4.536,3.85,5.881,5.109c0.887,0.802,1.546,1.374,1.975,1.718
				c4.007,3.864,6.01,8.3,6.01,13.309c0,4.923-1.646,8.93-4.937,12.021C188.492,150.573,184.142,152.119,178.704,152.119z"/>
			<path class="st1" d="M253.189,90.555v61.564h-11.205l-26.617-40.356v40.356h-11.42V90.555h11.162l26.317,40.656V90.555H253.189z"
				/>
			<path class="st1" d="M295.993,90.555l0.301,0.859l-6.01,15.498l-8.329,21.166h16.614l-3.993-10.003l6.01-15.498l19.19,49.543
				h-12.364l-4.551-12.622h-25.201l-5.152,12.622h-12.021l23.741-61.564H295.993z"/>
			<path class="st1" d="M338.58,152.119h-11.763V90.555h22.539c5.466,0,10.146,1.932,14.039,5.796
				c3.978,3.893,5.967,8.559,5.967,13.996v0.816c0,5.438-1.99,10.104-5.967,13.996c-3.921,3.836-8.601,5.753-14.039,5.753H338.58
				V152.119z M348.197,119.448c2.461,0,4.493-0.816,6.096-2.447c1.632-1.602,2.447-3.634,2.447-6.096s-0.815-4.565-2.447-6.311
				c-1.632-1.717-3.664-2.576-6.096-2.576h-9.617v17.43H348.197z"/>
		</g>
	</g>
</g>
</svg>
